<svg width="1100" height="767.4635" xmlns="http://www.w3.org/2000/svg">
 <metadata id="metadata8">image/svg+xml</metadata>

 <g>
  <title>background</title>
  <rect fill="none" id="canvas_background" height="402" width="582" y="-1" x="-1"/>
 </g>
 <g>
  <title>Layer 1</title>
  <path fill="#cb7d60" id="path2987" d="m310.87214,516.05161c0,-0.77704 -0.24092,-1.26389 -0.53538,-1.0819c-0.29445,0.18198 -0.90287,-0.54867 -1.35203,-1.62367c-0.47383,-1.13403 -1.20451,-1.95454 -1.74056,-1.95454c-0.73017,0 -0.78913,-0.16238 -0.28117,-0.77444c0.49375,-0.59492 0.47743,-0.83005 -0.0704,-1.01438c-0.56097,-0.18875 -0.53644,-0.45496 0.11498,-1.24763c0.63106,-0.76789 0.6639,-1.06296 0.13802,-1.23995c-0.37956,-0.12775 -0.6901,-0.47467 -0.6901,-0.77093c0,-0.29626 0.24559,-0.38687 0.54576,-0.20135c0.31295,0.1934 0.4055,-0.0282 0.21697,-0.51951c-0.18083,-0.47124 -0.0451,-0.85679 0.30178,-0.85679c0.4595,0 0.47026,-0.29957 0.0396,-1.10416c-0.47463,-0.88688 -0.41985,-1.10417 0.27839,-1.10417c0.70254,0 0.73667,-0.142 0.17794,-0.74011c-0.71473,-0.76513 -2.10296,-0.081 -1.9217,0.94714c0.0468,0.26569 -0.20583,0.59043 -0.56149,0.72163c-0.42535,0.15691 -0.5373,-0.17967 -0.3271,-0.98347c0.17577,-0.67211 0.0941,-1.09004 -0.18146,-0.92873c-0.27556,0.16131 -0.9979,0.11054 -1.60519,-0.11282c-0.87558,-0.32205 -0.61842,-0.48923 1.24219,-0.80757c1.46315,-0.25034 2.34634,-0.6949 2.34634,-1.18105c0,-0.42877 0.48279,-0.77959 1.07287,-0.77959c0.59006,0 1.41269,-0.4852 1.82805,-1.07821c0.74471,-1.06322 3.55679,-2.51409 4.46832,-2.30539c0.25751,0.059 1.87235,-0.24712 3.58853,-0.68017c1.71618,-0.43306 4.6735,-0.9625 6.57182,-1.17654c1.89833,-0.21404 3.58994,-0.61315 3.75914,-0.88692c0.16919,-0.27377 0.85195,-0.50332 1.51724,-0.51013c0.66527,-0.007 2.70022,-0.74655 4.52209,-1.64387c1.82187,-0.89733 3.73259,-1.63707 4.24605,-1.64388c0.51346,-0.007 1.08711,-0.2608 1.27477,-0.56445c0.18766,-0.30365 0.0608,-0.55208 -0.28186,-0.55208c-0.76513,0 -0.48927,-2.46913 0.28186,-2.52277c0.30364,-0.0211 1.6413,-0.35022 2.97257,-0.73135c1.33126,-0.38112 3.02674,-0.54079 3.76772,-0.35481c0.74097,0.18598 2.13612,0.0948 3.10033,-0.2026c0.9642,-0.2974 3.13939,-0.81203 4.83375,-1.14361c4.64979,-0.90995 7.13287,-1.67011 7.13287,-2.18361c0,-0.53219 -28.32139,-0.16081 -35.33324,0.46331c-3.69427,0.32881 -5.10382,0.23893 -6.62499,-0.42248c-1.06275,-0.4621 -2.0565,-0.8761 -2.20833,-0.91999c-0.15182,-0.0439 -1.00208,-0.37967 -1.88947,-0.74618c-0.88739,-0.3665 -2.00535,-0.51376 -2.48437,-0.32724c-0.47901,0.18653 -7.82717,0.42832 -16.32923,0.53732c-8.50206,0.10901 -16.57626,0.44559 -17.94266,0.74795c-1.3664,0.30237 -5.46125,0.83819 -9.09967,1.19071c-3.63841,0.35253 -7.09064,0.89537 -7.67162,1.20629c-0.58098,0.31093 -2.26972,0.44874 -3.75276,0.30624c-1.48304,-0.14251 -2.83038,-0.0424 -2.9941,0.22254c-0.16372,0.2649 -0.52894,0.3387 -0.8116,0.164c-0.28266,-0.17469 -0.51393,-0.0546 -0.51393,0.26704c0,0.32156 -0.18633,0.53536 -0.41407,0.4751c-0.91833,-0.243 -5.65884,0.76144 -5.65884,1.19903c0,0.53883 -4.17041,1.43455 -5.74729,1.23439c-0.58002,-0.0736 -1.52134,0.36714 -2.09181,0.97947c-0.57047,0.61233 -1.46231,1.14268 -1.98187,1.17855c-0.51954,0.0358 -2.43525,0.11878 -4.25712,0.18427c-1.82187,0.0654 -4.30624,0.40588 -5.52082,0.75643c-1.21458,0.35057 -3.14687,0.77707 -4.29397,0.9478c-1.14711,0.17071 -1.95093,0.5284 -1.78625,0.79483c0.51388,0.83149 -0.71294,1.04928 -10.30478,1.82935c-0.50969,0.0414 -0.88235,0.31068 -0.82812,0.59829c0.0542,0.2876 -0.39829,0.66914 -1.00558,0.84783c-0.60729,0.17871 -1.73141,0.75159 -2.49804,1.27309c-1.00285,0.68216 -3.09368,1.04779 -7.45311,1.30331c-3.33257,0.19533 -6.63349,0.32916 -7.33535,0.2974c-0.70188,-0.0317 -2.03913,0.3368 -2.97169,0.81905c-0.96309,0.49803 -1.84279,0.65805 -2.03637,0.37042c-0.47525,-0.70618 -2.41891,-1.38448 -1.99313,-0.69558c0.44874,0.7261 -0.0885,0.68891 -1.55843,-0.10789c-2.96686,-1.60817 -17.01232,-0.38578 -18.47756,1.60812c-0.45363,0.61728 -0.50337,1.0337 -0.13803,1.15548c0.31416,0.10471 0.57119,0.41033 0.57119,0.67915c0,0.26881 -0.34752,0.35539 -0.77227,0.19239c-0.42476,-0.163 -0.93629,-0.031 -1.13675,0.29337c-0.53533,0.86619 2.77326,0.74055 4.55883,-0.17313c0.81995,-0.41956 2.60878,-0.94572 3.97517,-1.16924c1.36641,-0.22354 2.91914,-0.48708 3.45052,-0.58567c0.53138,-0.0986 0.96614,0.14616 0.96614,0.54391c0,0.51155 0.6866,0.66939 2.34635,0.53941c1.81371,-0.14203 2.12439,-0.0551 1.3686,0.38324c-0.53777,0.31184 -0.85344,0.76812 -0.70151,1.01396c0.32771,0.53023 -2.75894,1.06346 -8.73473,1.50895c-3.35532,0.25012 -4.45037,0.15112 -4.82227,-0.43603c-0.34899,-0.55098 -0.48349,-0.57008 -0.48962,-0.0695c-0.0125,1.0164 -3.33089,0.85224 -4.51966,-0.22358c-0.55529,-0.50253 -1.00962,-0.67867 -1.00962,-0.3914c0,0.3168 -1.792,0.37297 -4.55467,0.14275c-2.50507,-0.20874 -6.41795,-0.51641 -8.69529,-0.68371c-2.27734,-0.16729 -4.95667,-0.593 -5.95406,-0.946c-0.9974,-0.35301 -2.43184,-0.52363 -3.18766,-0.37914c-0.75581,0.14448 -1.53087,0.009 -1.72236,-0.30065c-0.21405,-0.34634 -0.0697,-0.3913 0.37452,-0.1167c0.44958,0.27785 0.58868,0.22984 0.3681,-0.12709c-0.41573,-0.67267 -3.0488,-1.28201 -6.16496,-1.42665c-1.8382,-0.0853 -2.21837,-0.30133 -2.26828,-1.28874c-0.0536,-1.06035 0.32717,-1.23109 3.58853,-1.60913c2.00667,-0.23259 4.26958,-0.36915 5.02869,-0.30346l1.38021,0.11946l-1.46486,-0.79624c-2.54024,-1.38077 -5.01719,-1.9634 -9.85282,-2.31761c-2.58098,-0.18905 -6.30754,-0.74947 -8.28123,-1.24537c-4.53949,-1.14057 -20.29092,-1.22803 -20.97789,-0.11649c-0.23641,0.38253 -0.72208,0.51491 -1.07925,0.29415c-0.9224,-0.57006 -11.08209,-0.76201 -10.7365,-0.20283c0.32324,0.52303 0.24098,0.53188 -6.98115,0.75109c-5.09733,0.15471 -7.24892,0.34334 -14.88131,1.3046c-3.4802,0.43832 -5.51497,0.18726 -7.50405,-0.92588c-0.833,-0.46618 -0.65347,-0.73132 1.35263,-1.99772c1.61807,-1.02143 3.59483,-1.62224 6.57862,-1.99942c5.092,-0.6437 9.95037,-1.45459 13.45068,-2.24501c2.09374,-0.47279 2.51134,-0.76503 2.29195,-1.60394c-0.15747,-0.60218 -0.58778,-0.9032 -1.04198,-0.7289c-0.42555,0.16329 -0.77372,0.0219 -0.77372,-0.31425c0,-0.33614 0.43476,-0.61495 0.96614,-0.6196c0.82567,-0.007 0.84573,-0.0862 0.13803,-0.54363c-0.52375,-0.33847 -0.58085,-0.53829 -0.15535,-0.54363c0.37107,-0.005 0.52975,-0.38117 0.35384,-0.83959c-0.22196,-0.57841 0.32888,-1.11903 1.81159,-1.77797l2.13052,-0.94685l-5.39417,-0.33282c-2.9668,-0.18306 -6.87968,-0.30767 -8.69529,-0.27692c-1.81561,0.0308 -3.30111,0.0249 -3.30111,-0.0131c0,-0.0379 0.49687,-0.64188 1.10416,-1.34208c0.60729,-0.70022 1.10417,-1.10516 1.10417,-0.89988c0,0.20529 0.55945,0.007 1.24322,-0.44134c0.68377,-0.44803 3.08496,-1.10035 5.336,-1.4496c2.25102,-0.34927 5.07671,-0.98217 6.27928,-1.40647c1.2026,-0.4243 3.08694,-0.7803 4.18743,-0.79112c3.07458,-0.0302 10.81934,-2.04398 8.57987,-2.2309c-0.27834,-0.0232 -1.00295,-0.15656 -1.61025,-0.2963c-0.60728,-0.13973 -1.40751,-0.32057 -1.77828,-0.40185c-1.26313,-0.27692 -1.34381,-0.81426 -0.17781,-1.18434c0.63996,-0.20312 1.81292,-0.97111 2.60659,-1.70665c0.79367,-0.73555 1.99742,-1.33735 2.67502,-1.33735c0.67759,0 1.51541,-0.34152 1.86183,-0.75892c0.51762,-0.62369 0.0624,-0.82356 -2.55479,-1.12166c-1.75155,-0.1995 -3.92995,-0.48307 -4.84088,-0.63013c-2.16718,-0.34986 -10.79084,-0.29927 -11.38314,0.0668c-0.79908,0.49387 -7.1116,0.72677 -7.1116,0.26239c0,-0.24403 0.37265,-0.75297 0.82812,-1.13097c0.45547,-0.378 0.82812,-0.9467 0.82812,-1.26377c0,-0.31707 -0.16347,-0.41303 -0.36326,-0.21324c-0.1998,0.1998 -0.69667,0.0865 -1.10416,-0.25163c-0.41025,-0.34048 -0.7409,-0.3794 -0.7409,-0.0872c0,0.29021 -0.37266,0.52766 -0.82813,0.52766c-1.32589,0 -0.96218,-0.59125 0.85983,-1.39775c2.04899,-0.90698 1.75559,-1.2874 -1.54768,-2.00675c-3.01337,-0.65623 -3.58781,-1.68472 -1.42733,-2.55553c2.23589,-0.90121 12.74058,-2.0709 18.74558,-2.0873c2.81473,-0.008 5.77673,-0.1794 6.58225,-0.38157l1.46456,-0.36758l-1.57301,-1.28675c-0.86515,-0.70772 -1.9931,-1.29568 -2.50656,-1.3066c-1.30862,-0.0278 -1.70637,-0.90596 -1.00443,-2.21752c0.74119,-1.38492 5.54352,-3.87524 7.47303,-3.87524c0.81351,0 1.28389,-0.23827 1.08995,-0.55209c-0.18767,-0.30364 -0.79685,-0.55208 -1.35374,-0.55208c-0.93533,0 -1.97529,-1.37829 -1.77037,-2.34634c0.2083,-0.98404 -8.55111,0.11646 -9.28416,1.16642c-0.55987,0.80192 -14.6576,2.89758 -16.0435,2.3849l-1.31976,-0.48821l1.2838,-0.68706c0.70607,-0.37788 5.29295,-1.35541 10.19306,-2.17229c8.9666,-1.49479 11.14887,-2.55011 5.27331,-2.55011c-1.80537,0 -3.46624,-0.31535 -4.00617,-0.76068c-0.7669,-0.6325 -1.82872,-0.64998 -6.30153,-0.10374c-8.22451,1.00442 -13.00431,1.69431 -14.12524,2.03876c-0.74265,0.22821 -0.96599,0.0646 -0.82813,-0.60672c0.20092,-0.9784 1.90897,-2.12635 4.58672,-3.08266c2.30487,-0.82313 0.87216,-1.54887 -2.07487,-1.05102c-1.2777,0.21584 -3.44105,0.56745 -4.80745,0.78136l-2.48437,0.38892l2.07031,-1.98402c1.13867,-1.0912 2.07031,-2.07279 2.07031,-2.18131c0,-0.10851 -1.54057,-0.37159 -3.42348,-0.58461c-4.45192,-0.50369 -6.83402,-1.75171 -6.80318,-3.56432c0.0162,-0.95591 3.58777,-2.23832 6.91103,-2.48154c1.36813,-0.10012 4.47499,-0.57676 6.90415,-1.05918c2.42917,-0.48242 6.15603,-0.98892 8.28192,-1.12555c2.12589,-0.13663 5.35556,-0.51012 7.17706,-0.82996c11.31249,-1.98643 13.85859,-2.47536 14.34618,-2.75494c0.29964,-0.17181 -0.56989,-0.58379 -1.9323,-0.91551c-1.37102,-0.33382 -2.47709,-0.92685 -2.47709,-1.32813c0,-0.92903 5.56442,-2.94709 10.61451,-3.84959c2.45661,-0.43903 4.27422,-1.09217 4.86934,-1.74978c0.53266,-0.58857 2.38079,-1.33085 4.20927,-1.69059c4.14855,-0.81617 4.03652,-1.59029 -0.47115,-3.2559c-0.96643,-0.35711 -1.64518,-0.93661 -1.50834,-1.28779c0.31144,-0.79929 2.87037,-2.0187 4.23625,-2.0187c0.56468,0 0.87314,-0.24844 0.68548,-0.55209c-0.18767,-0.30364 -2.18983,-0.55208 -4.44924,-0.55208c-3.72263,0 -5.21751,-0.56446 -3.41793,-1.29061c1.60799,-0.64884 -6.44903,-0.29756 -10.42856,0.45466c-4.95573,0.93677 -7.65212,0.54467 -7.65212,-1.11274c0,-0.76406 1.44208,-1.76729 5.41902,-3.76988c3.74638,-1.88651 5.19482,-2.87354 4.69269,-3.1978c-0.95379,-0.61591 -0.0124,-1.24562 3.69035,-2.46862c5.22645,-1.72625 9.37264,-4.61988 8.8283,-6.16128c-0.3718,-1.05278 1.66526,-1.62701 10.08135,-2.84181c4.1833,-0.60383 8.37273,-1.48038 9.30983,-1.94787c0.93711,-0.46748 2.92106,-0.99586 4.40879,-1.17418c4.10222,-0.49168 11.95159,-2.4774 13.17933,-3.3341c0.59894,-0.41792 1.84113,-0.77732 2.76041,-0.79867c0.91929,-0.0213 2.1683,-0.25231 2.77559,-0.51327c0.87922,-0.37781 0.65427,-0.49105 -1.10416,-0.5558c-4.70571,-0.17329 -7.20273,-0.63724 -7.82662,-1.4542c-0.4259,-0.55769 -1.09125,-0.72919 -1.93229,-0.49809c-1.10382,0.30332 -1.14658,0.2672 -0.30662,-0.25897c0.53687,-0.33631 1.4064,-0.54069 1.93229,-0.45421c0.52589,0.0865 1.29041,-0.0521 1.69891,-0.30814c0.43945,-0.27536 1.29877,-0.16783 2.10439,0.26333c1.06118,0.56792 1.59211,0.58479 2.40613,0.0765c0.66086,-0.41271 1.16726,-0.45368 1.37871,-0.11153c0.18382,0.29743 1.74808,0.54958 3.47611,0.56034c1.72804,0.0107 3.76298,0.37461 4.52209,0.80856c1.65381,0.9454 2.20833,1.01472 2.20833,0.27604c0,-0.30364 -0.38732,-0.55208 -0.86071,-0.55208c-0.47339,0 -0.72461,-0.2202 -0.55828,-0.48932c0.16633,-0.26912 -0.21784,-0.62536 -0.85371,-0.79165c-0.63586,-0.16628 -1.04818,-0.62929 -0.91624,-1.0289c0.24346,-0.73742 2.7164,-1.1695 10.366,-1.81117c6.91094,-0.5797 8.83331,-0.8917 8.83331,-1.43361c0,-0.28504 -0.37265,-0.51825 -0.82811,-0.51825c-0.46007,0 -0.82813,-0.49074 -0.82813,-1.10417c0,-0.80972 0.36806,-1.10416 1.38021,-1.10416c1.58811,0 1.85893,-0.8502 0.39293,-1.23357c-0.543,-0.14199 -3.33791,-0.1255 -6.21092,0.0366c-8.36759,0.47223 -11.71479,0.31509 -13.4653,-0.63214c-0.88916,-0.48116 -1.77584,-0.77644 -1.97041,-0.65619c-0.19456,0.12025 -0.2511,-0.48076 -0.12564,-1.33556c0.27374,-1.86516 -0.50276,-2.15607 -6.17132,-2.31201c-3.39261,-0.0934 -3.65593,-0.17713 -2.4769,-0.78819c1.93967,-1.00526 9.0548,-2.44797 13.29775,-2.69634c2.16843,-0.12693 4.21673,-0.58029 4.95357,-1.09638c1.56837,-1.09854 2.51348,-1.11225 3.57388,-0.0519c0.47699,0.477 1.80627,0.82309 3.13504,0.81623c4.09184,-0.0211 19.35869,-1.57376 21.43151,-2.17963c1.93566,-0.56577 1.99436,-0.65711 1.58598,-2.46783c-0.25732,-1.14098 -0.19943,-2.10496 0.14727,-2.45166c0.39373,-0.39373 0.37675,-0.8058 -0.0546,-1.32557c-1.3189,-1.58917 0.35887,-1.91818 8.41577,-1.65035c6.26014,0.20812 8.213,0.0941 9.48328,-0.55369c1.34399,-0.68536 7.40339,-1.63072 11.53718,-1.79997c0.60729,-0.0248 2.34635,-0.2673 3.86457,-0.53876l2.76041,-0.49355l-2.48436,-0.40159c-1.36641,-0.22089 -5.46562,-0.27491 -9.10936,-0.12005c-3.64374,0.15485 -8.86092,0.24849 -11.59372,0.20808c-2.7328,-0.0404 -8.0742,0.33121 -11.86976,0.82581c-7.51011,0.97865 -15.25506,1.66321 -18.58917,1.64307c-1.16264,-0.007 -2.26996,0.20418 -2.46068,0.46936c-0.19073,0.26517 -1.12237,0.51383 -2.07031,0.55258c-0.94794,0.0388 -1.72353,0.27614 -1.72353,0.52754c0,0.25142 -0.55898,0.29989 -1.24218,0.10771c-0.97241,-0.27352 -1.06234,-0.22349 -0.41407,0.23039c0.71388,0.49979 0.69483,0.58096 -0.13801,0.58824c-0.53138,0.005 -0.96615,0.28546 -0.96615,0.62403c0,0.37806 -0.52506,0.27155 -1.36078,-0.27604c-1.51129,-0.99023 -2.17391,-1.14571 -1.71445,-0.4023c0.16632,0.26912 -0.19167,0.61852 -0.79555,0.77644c-0.62839,0.16433 -1.09803,0.0141 -1.09811,-0.3513c-0.0001,-0.36963 -0.87173,-0.63842 -2.07031,-0.63842c-1.31583,0 -2.02306,0.24185 -1.94092,0.66372c0.089,0.45679 -0.50599,0.58239 -1.90829,0.40285c-2.2983,-0.29426 -4.56565,-1.58064 -4.57833,-2.59751c-0.006,-0.43468 -0.20021,-0.38067 -0.54363,0.15074c-0.41538,0.64275 -0.53707,0.48015 -0.54363,-0.7264c-0.0108,-1.99124 0.89882,-3.69023 1.97581,-3.69023c0.4627,0 0.68774,-0.24844 0.50008,-0.55208c-0.18767,-0.30365 0.10822,-0.5711 0.65752,-0.59433c1.81928,-0.077 2.97474,-0.4115 4.20486,-1.21751c1.10297,-0.7227 3.69488,-0.44453 3.69488,0.39653c0,0.15206 -0.33284,0.14875 -0.73966,-0.008c-0.40682,-0.1561 -1.09002,0.14782 -1.51823,0.67539c-0.67094,0.82665 -0.6702,0.89392 0.006,0.48664c0.60292,-0.36346 0.69421,-0.23879 0.39536,0.53999c-0.23243,0.60573 -0.10376,1.19328 0.32025,1.46232c1.05624,0.6702 1.94559,0.54413 0.98484,-0.1396c-0.62313,-0.44347 -0.30325,-0.51629 1.29225,-0.29417c1.17274,0.16325 2.57142,0.0135 3.12964,-0.33513c0.764,-0.47713 1.20575,-0.46725 1.81775,0.0407c0.65195,0.54108 0.89137,0.4812 1.23664,-0.30925c0.23549,-0.53914 0.38872,-1.16657 0.34051,-1.3943c-0.0482,-0.22774 0.26431,-0.41406 0.69447,-0.41406c0.43017,0 0.87683,-0.28414 0.99259,-0.63141c0.11575,-0.34727 0.93931,-0.70913 1.83011,-0.8041c0.8908,-0.095 1.8972,-0.5523 2.23646,-1.01626c0.33927,-0.46397 0.81819,-0.66109 1.06428,-0.43809c0.24609,0.223 0.29142,-0.0293 0.10076,-0.56064c-0.42677,-1.18936 0.62917,-1.30054 1.08441,-0.11421c0.28933,0.754 0.44606,0.74414 1.36289,-0.0856c0.97873,-0.88574 1.03641,-0.87944 1.04439,0.11416c0.007,0.88115 0.0952,0.91743 0.54363,0.22359c0.79783,-1.23452 0.68397,-1.50342 -0.79367,-1.87427c-0.93713,-0.23521 -1.31917,-0.69072 -1.25819,-1.50015c0.0972,-1.28945 2.02031,-2.25337 4.23611,-2.12319c2.06536,0.12139 3.88865,-0.58911 3.88865,-1.51528c0,-0.5962 0.54871,-0.77115 2.07032,-0.66006c2.22508,0.1624 5.96844,-0.45899 7.31507,-1.21436c0.66875,-0.3751 0.61563,-0.47275 -0.27603,-0.50742c-0.6073,-0.0234 -2.34635,-0.15937 -3.86458,-0.30171c-4.69455,-0.44009 -10.93905,-0.42627 -13.19175,0.0293c-1.54648,0.31269 -2.04217,0.26006 -1.7656,-0.18745c0.23751,-0.38428 0.0882,-0.50845 -0.3906,-0.32471c-0.45413,0.17427 -1.18696,-0.3311 -1.76959,-1.22031c-0.71131,-1.0856 -0.80482,-1.58091 -0.32845,-1.73975c0.44733,-0.14907 0.33916,-0.47837 -0.32939,-1.00283c-0.90732,-0.71172 -0.84882,-0.75532 0.66085,-0.49302c0.91092,0.1583 1.34569,0.14141 0.96614,-0.0376c-1.39819,-0.65913 -0.62814,-1.3375 1.51808,-1.3375c1.3941,0 2.21144,0.25445 2.21677,0.69009c0.006,0.50781 0.13384,0.49224 0.48308,-0.0589c0.29819,-0.47061 0.60368,-0.54019 0.82185,-0.18721c0.37061,0.59966 1.07341,0.55303 2.79895,-0.1857c0.59172,-0.25332 1.89244,-0.47719 2.89047,-0.49746c2.28817,-0.0464 3.03108,-1.41704 0.76808,-1.41704c-0.89501,0 -1.71759,-0.35898 -1.89763,-0.82812c-0.21444,-0.55879 0.0268,-0.82813 0.74163,-0.82813c0.58266,0 1.25808,-0.31054 1.5009,-0.69009c0.63313,-0.98969 2.88302,-2.16196 3.46225,-1.80395c0.27032,0.16704 0.64752,0.0514 0.83825,-0.25737c0.19072,-0.30855 1.03233,-0.56109 1.87023,-0.56109c0.8379,0 2.87284,-0.40346 4.52209,-0.89653c2.60319,-0.77837 2.83709,-0.95718 1.77365,-1.35606c-0.67373,-0.25268 -5.28352,-0.42578 -10.24398,-0.38461c-4.96045,0.0415 -9.34362,-0.12569 -9.74036,-0.3709c-0.41082,-0.25391 -0.88397,-0.18272 -1.0991,0.16538c-0.44362,0.71777 -17.60575,1.26191 -18.03232,0.57168c-0.14995,-0.24263 -0.65816,-0.29322 -1.12936,-0.11236c-0.58025,0.22266 -0.65662,0.45245 -0.23665,0.71197c0.34105,0.21079 -0.135,0.38325 -1.05788,0.38325c-0.92287,0 -1.67796,-0.23745 -1.67796,-0.52769c0,-0.29023 -0.37866,-0.21338 -0.84147,0.17071c-0.4628,0.38408 -1.01807,0.52173 -1.23394,0.30586c-0.21585,-0.21587 0.22492,-0.86241 0.9795,-1.43677l1.37195,-1.04439l-1.38021,0.26534c-1.20947,0.23247 -1.24362,0.20039 -0.27603,-0.25933c1.59223,-0.75645 4.20892,-0.67817 5.74282,0.17187c1.49501,0.82847 3.36653,0.55547 3.36653,-0.49106c0,-0.48208 1.09013,-0.69863 3.58853,-0.71274c2.25153,-0.0127 3.58854,0.20571 3.58854,0.58628c0,0.33364 0.31054,0.19951 0.69009,-0.29805c0.49848,-0.65347 1.99323,-1.00308 5.38281,-1.25899c2.58098,-0.19487 6.26084,-0.70478 8.17746,-1.13315c1.91663,-0.42832 4.27677,-0.80269 5.24478,-0.83184c0.968,-0.0293 3.00219,-0.39223 4.52042,-0.80683c2.58849,-0.70684 2.29622,-0.73506 -4.6927,-0.45264c-4.09921,0.16563 -7.82576,0.30523 -8.28122,0.31021c-0.45547,0.005 -6.16953,0.59145 -12.69789,1.30317c-6.52837,0.71177 -13.64577,1.37002 -15.81643,1.46274c-2.17066,0.0928 -3.83295,0.35494 -3.69397,0.58267c0.13898,0.22773 -0.81782,0.41509 -2.12624,0.41626c-1.3084,0 -4.61486,0.36221 -7.34766,0.80205c-4.68622,0.7543 -15.7097,1.53218 -14.21267,1.00288c0.38145,-0.13481 0.55311,-0.47241 0.38148,-0.7501c-0.17163,-0.27768 0.3858,-0.51684 1.23874,-0.53144c0.85295,-0.0142 2.42034,-0.4979 3.48309,-1.07412c1.06277,-0.57617 2.42916,-1.2793 3.03646,-1.56245c1.9961,-0.93081 34.5573,-6.31753 42.23427,-6.98697c2.27733,-0.19858 8.8609,-0.85322 14.63016,-1.45464c5.76926,-0.60146 13.38397,-1.33461 16.92158,-1.62924c3.53762,-0.29473 7.6274,-0.89556 9.08839,-1.33521c1.91922,-0.57759 2.762,-0.62856 3.03704,-0.18354c0.3487,0.56425 6.15702,0.40976 13.18726,-0.35069c1.06276,-0.11499 4.41666,-0.36425 7.45311,-0.55395c5.44849,-0.34038 13.74957,-1.4856 18.39591,-2.53784c1.31205,-0.29712 2.61809,-0.39654 2.90231,-0.2209c0.28422,0.17568 4.13068,-0.22808 8.54769,-0.89717c6.53534,-0.99004 8.26619,-1.09072 9.29427,-0.54043c1.03377,0.55322 2.35772,0.4604 7.28548,-0.51069c8.20288,-1.61656 18.90678,-3.71812 24.24083,-4.75938c2.42916,-0.47422 5.95833,-1.2146 7.84261,-1.64521c1.88427,-0.43067 4.24442,-0.78179 5.24478,-0.78032c1.00035,0 2.93678,-0.35503 4.30319,-0.79234c2.3028,-0.73696 7.01758,-1.55508 19.59891,-3.40078c6.46346,-0.94819 7.76548,-1.16704 14.35413,-2.4125c3.03645,-0.57397 8.00518,-1.45361 11.04163,-1.95479c3.03645,-0.50117 6.26614,-1.03442 7.17707,-1.18501c6.44619,-1.06533 7.67382,-1.04555 8.95585,0.14454c0.69172,0.64213 1.25766,1.44956 1.25766,1.79428c0,0.34473 0.18633,0.59737 0.41407,0.56143c0.22773,-0.0356 0.98178,-0.0356 1.67567,0c1.055,0.0546 1.1712,0.23428 0.70952,1.09692c-0.67585,1.26289 -0.13522,1.94405 0.8765,1.1044c1.13835,-0.94473 0.87912,-0.095 -0.43051,1.41123c-0.68698,0.79009 -2.06674,1.49848 -3.33646,1.71299c-1.85385,0.31323 -2.0654,0.48588 -1.47178,1.20112c0.89094,1.07349 0.13826,1.14009 35.51603,-3.14053c2.42916,-0.29394 6.77681,-0.65356 9.66144,-0.79917c2.88462,-0.1456 8.1018,-0.52627 11.59371,-0.8459c3.49191,-0.31958 8.088,-0.67949 10.21352,-0.7998c2.12551,-0.12026 4.84701,-0.47608 6.04776,-0.79068c1.20076,-0.31455 5.96436,-0.58725 10.58576,-0.6059c4.62142,-0.0186 8.73193,-0.14463 9.13448,-0.27998c0.99341,-0.33394 13.93049,-1.01167 17.00884,-0.89102c1.36118,0.0535 2.85482,0.44077 3.31919,0.86099c1.04044,0.9416 3.69032,1.03598 16.01318,0.5705c5.66456,-0.21406 10.86668,-0.70068 12.57482,-1.17636c2.22887,-0.62071 5.92577,-0.79063 15.73433,-0.72315c7.05153,0.0488 18.78344,-0.0993 26.07092,-0.32837c14.76819,-0.4643 13.97861,-0.46958 29.26034,0.1938c9.89408,0.42949 15.602,0.44732 24.29161,0.0759c1.51822,-0.0649 2.32564,-0.23164 1.79426,-0.37051c-0.53137,-0.13881 -0.96614,-0.51215 -0.96614,-0.82954c0,-0.38071 1.54969,-0.46767 4.55468,-0.25551c2.50507,0.1769 10.02028,0.57338 16.70048,0.8811c6.68018,0.30776 15.25126,0.8144 19.04682,1.12588c15.24888,1.25146 21.06446,1.69253 28.98428,2.19809c19.80688,1.26455 30.24814,1.76841 41.13013,1.98487c5.01015,0.0997 11.22104,0.35053 13.80205,0.55737c2.58095,0.20688 6.43174,0.35386 8.55727,0.32661c2.12549,-0.0268 6.34893,0.19478 9.3854,0.49346c3.03643,0.29868 12.87041,0.65244 21.85313,0.78618c8.98281,0.13374 17.42969,0.4853 18.7708,0.78125c1.34116,0.29595 4.39028,0.67266 6.77588,0.83711c2.38559,0.16445 5.11841,0.42681 6.0729,0.58301c3.26435,0.53413 8.36074,0.89731 15.81357,1.12685c6.56294,0.2021 12.93975,0.68721 22.35928,1.70103c1.51826,0.16333 3.62998,0.36636 4.69272,0.45107c1.06275,0.0848 3.79556,0.31353 6.0729,0.50845c2.27735,0.19492 6.12779,0.50635 8.55655,0.69214c2.42871,0.18569 4.54043,0.41421 4.69267,0.50776c0.15225,0.0936 1.68965,0.32017 3.41651,0.50381c1.72685,0.18355 3.50366,0.47339 3.94834,0.64409c0.44477,0.17066 3.00688,0.38428 5.69356,0.47476c7.3791,0.24839 7.36939,0.24687 7.36939,1.13921c0,0.45547 0.26308,0.82812 0.58461,0.82812c0.32164,0 0.40508,-0.29062 0.1855,-0.64585c-0.27217,-0.44043 -0.0925,-0.52827 0.56465,-0.27607c0.53018,0.20346 1.51177,0.36987 2.18145,0.36987c0.82177,0 1.24458,0.35889 1.30068,1.10415c0.0994,1.31978 -0.2002,1.38311 -1.30728,0.27603c-1.15556,-1.15557 -2.44829,-1.06895 -2.06,0.13803c0.19121,0.59449 0.13144,0.72881 -0.15538,0.34917c-0.31767,-0.42046 -1.87285,-0.49941 -4.88276,-0.2478c-5.18121,0.43306 -9.092,0.31387 -16.28644,-0.49634c-2.88461,-0.32485 -6.61118,-0.72422 -8.28125,-0.88755c-1.67001,-0.16323 -3.32646,-0.39155 -3.68081,-0.50747c-0.35444,-0.11582 -0.78906,0.16617 -0.96572,0.62661c-0.23794,0.62012 -0.76221,0.74043 -2.02124,0.46387c-1.97759,-0.43437 -3.24873,-0.59951 -8.51445,-1.10635c-2.12554,-0.20459 -4.01323,-0.46337 -4.19483,-0.57504c-0.38701,-0.23794 -7.77124,-0.27706 -17.88847,-0.0947c-6.41909,0.11562 -10.94507,-0.20039 -14.32197,-1c-1.90279,-0.45054 -15.21441,-0.64546 -15.21441,-0.22271c0,0.21739 1.67695,0.57471 3.72656,0.7941c2.04961,0.21943 4.22344,0.49687 4.83072,0.61665c4.25996,0.84023 15.66875,1.78193 24.8437,2.05068c2.12549,0.0623 4.12724,0.2814 4.44829,0.48696c0.53384,0.34185 17.4394,1.66011 18.34648,1.43067c0.21592,-0.0547 2.25591,0.0744 4.53325,0.28686c3.52081,0.32837 12.51197,0.98921 14.76822,1.08545c0.81567,0.0347 0.91186,0.74736 0.16323,1.21001c-0.53721,0.33203 -4.69883,0.40869 -8.46494,0.15591c-1.15,-0.0772 -2.29277,-0.46733 -2.5396,-0.86699c-0.33384,-0.54063 -1.28252,-0.63091 -3.70606,-0.35259c-1.7915,0.20576 -3.42358,0.4729 -3.62685,0.5937c-0.20322,0.12085 -0.74634,-0.15718 -1.20698,-0.61777c-0.4606,-0.46055 -0.9689,-0.62471 -1.12959,-0.36465c-0.31187,0.50454 -11.45484,0.28965 -14.68443,-0.28316c-1.06279,-0.18852 -2.93603,-0.39399 -4.16284,-0.45659c-1.22681,-0.0626 -2.77954,-0.40766 -3.45049,-0.76675c-0.97549,-0.52202 -1.22002,-0.50512 -1.22002,0.0843c0,0.43389 -0.73813,0.79668 -1.79424,0.88194c-4.36538,0.35224 -10.47558,0.31884 -15.32026,-0.0837c-3.48452,-0.2895 -4.97222,-0.25332 -4.43266,0.10806c2.17622,1.45713 -1.90669,2.17578 -8.26524,1.45474c-5.63696,-0.63926 -6.64463,-0.6729 -9.08091,-0.30318c-1.25693,0.19077 -3.01967,0.15005 -3.91723,-0.0905c-2.36431,-0.6335 -14.65386,-1.75538 -20.12676,-1.83726c-2.58101,-0.0386 -6.30757,-0.24014 -8.28125,-0.44771c-1.97368,-0.20756 -5.94868,-0.50493 -8.8333,-0.66079c-2.88462,-0.15586 -9.71665,-0.64863 -15.18228,-1.09506c-5.46557,-0.44644 -13.59516,-0.97867 -18.06572,-1.18267c-7.28511,-0.33247 -8.16479,-0.27559 -8.48101,0.54844c-0.30073,0.78374 -1.26025,0.91591 -6.5019,0.8959c-3.38208,-0.0127 -7.26714,0.17802 -8.63354,0.42431l-2.48438,0.4479l4.14063,0.61558c2.27734,0.33857 5.01015,0.60879 6.0729,0.60044c1.06274,-0.009 5.4104,0.36958 9.66142,0.83979c4.25103,0.47017 12.32525,1.13228 17.94268,1.47129c5.61743,0.33897 10.76616,0.73521 11.44155,0.88057c0.67549,0.14536 6.26533,0.50615 12.42187,0.80171c11.06495,0.5313 18.81807,0.96484 24.71978,1.38242c1.67007,0.11816 7.39917,0.46641 12.73135,0.77397c5.33222,0.30752 10.05254,0.66978 10.48955,0.80498c0.43711,0.13521 1.29155,0.43374 1.89883,0.66338c0.60727,0.22964 2.05927,0.48643 3.22661,0.5708c1.16728,0.0844 2.41045,0.54722 2.7625,1.02867c0.5083,0.69516 1.94658,0.90473 6.98691,1.01806c3.49077,0.0785 6.59527,0.29556 6.89893,0.48218c0.30366,0.18667 2.41538,0.4852 4.69272,0.66338c10.88653,0.85181 21.76939,1.54365 26.77593,1.7022c3.03647,0.0962 9.49585,0.60869 14.35415,1.13896c4.8583,0.53023 11.06924,1.04653 13.80205,1.14732c18.91432,0.69755 34.02057,1.57602 41.95821,2.43994c2.73282,0.29746 7.52285,0.70058 10.64453,0.89585c3.12173,0.19531 5.80708,0.56748 5.96748,0.827c0.16041,0.25962 -0.53037,0.49214 -1.5352,0.51684c-1.00474,0.0249 -2.52817,0.0957 -3.3854,0.15801c-0.85723,0.0622 -1.66655,-0.0616 -1.79863,-0.27524c-0.13199,-0.21358 -1.15791,-0.13487 -2.27989,0.1749c-1.13867,0.3144 -3.63671,0.4022 -5.65449,0.19878c-1.98804,-0.20049 -12.55835,-0.46172 -23.48955,-0.58062c-10.93125,-0.11884 -23.97418,-0.37651 -28.98433,-0.57255c-8.93033,-0.34947 -11.46089,-0.1357 -5.60259,0.47319c1.6251,0.16894 3.0749,0.42734 3.22177,0.57422c0.39375,0.39375 -1.62504,1.36792 -3.29965,1.59214c-1.95132,0.26132 -2.56704,0.96069 -0.89854,1.0206c0.73384,0.0264 4.56392,0.27944 8.51128,0.56245c3.94741,0.28301 11.71105,0.66133 17.2526,0.84077c9.10947,0.29493 10.07549,0.41895 10.07549,1.2938c0,1.21431 2.22256,1.50147 15.61699,2.01773c5.40107,0.2082 9.94975,0.58813 10.1081,0.84438c0.1584,0.2562 1.37657,0.46587 2.70713,0.46587c4.5356,0 3.26421,1.52446 -2.30722,2.76646c-1.57261,0.35053 -3.68433,0.59165 -4.69268,0.53574c-6.72397,-0.37261 -4.9602,0.7144 2.58325,1.59204c3.03643,0.35332 7.25987,0.7627 9.38535,0.90977c2.12554,0.14707 5.97632,0.51503 8.55728,0.81767c2.58101,0.30269 7.79819,0.71416 11.59375,0.91436c4.67397,0.24658 7.07915,0.59756 7.45308,1.0875c0.30585,0.40083 2.27558,0.88374 4.41665,1.08291c2.12553,0.1977 4.11303,0.66279 4.41669,1.03354c0.30362,0.37075 2.36646,0.8417 4.58414,1.04653c2.21767,0.20489 4.58896,0.73736 5.26962,1.18331c0.77994,0.51103 3.16763,0.90068 6.45743,1.05376c7.0934,0.33012 12.651,0.95224 12.9591,1.45068c0.3237,0.52383 -4.5104,1.27212 -5.2531,0.81313c-0.3046,-0.18823 -0.5537,-0.10673 -0.5537,0.18101c0,0.28779 0.8696,0.68638 1.9323,0.88574c2.0982,0.39362 2.4949,1.08041 0.9662,1.67303c-1.804,0.69934 0.7206,1.80703 6.3963,2.80634c4.7671,0.83935 7.7797,1.87673 5.5838,1.92278c-2.0639,0.0433 1.1223,1.01646 4.4391,1.35583c1.9691,0.20147 3.869,0.60596 4.2219,0.89884c0.3529,0.29289 2.2129,0.78557 4.1333,1.09486c5.336,0.85933 5.2783,1.54977 -0.1651,1.9776c-2.0338,0.15984 -3.8932,0.63341 -4.4524,1.13394c-0.7845,0.70228 -1.7438,0.7863 -5.2447,0.45935c-7.1188,-0.66482 -8.5282,-0.53546 -9.5966,0.88092c-0.5229,0.69319 -0.8432,1.43413 -0.712,1.64653c0.1313,0.21239 1.913,0.56006 3.9594,0.77259c2.0464,0.21254 3.9692,0.58142 4.2729,0.81977c0.3036,0.23836 1.7321,0.60905 3.1744,0.82376c3.9583,0.58927 3.1459,1.36919 -1.4262,1.36919c-2.2268,0 -4.2367,0.18633 -4.4666,0.41407c-0.2298,0.22772 -2.5455,0.41405 -5.1459,0.41405c-3.288,0 -4.8002,0.21018 -4.9648,0.69011c-0.1624,0.47294 0.4291,0.69106 1.8794,0.69318c1.164,0.00098 2.9859,0.23097 4.0486,0.5095c1.0628,0.27854 4.0352,0.66362 6.6054,0.85572c2.5702,0.19211 4.9532,0.58177 5.2956,0.86591c0.3423,0.28414 0.7672,0.37187 0.9441,0.19496c0.1769,-0.17691 0.8994,-0.11528 1.6055,0.13697c0.9912,0.35411 0.403,0.53878 -2.5808,0.81031c-3.5211,0.32043 -7.5371,1.12612 -9.6615,1.93835c-1.3481,0.51544 0.7485,1.082 7.0391,1.90211c3.1123,0.40575 5.6588,0.88511 5.6588,1.06521c0,0.18011 1.6149,0.22465 3.5886,0.099c2.8839,-0.18365 3.5885,-0.0701 3.5885,0.57837c0,1.00072 -1.7474,2.63717 -2.8039,2.6258c-0.6491,-0.007 -0.6415,-0.10094 0.043,-0.54364c0.7047,-0.45541 0.6816,-0.53643 -0.1553,-0.54362c-0.5409,-0.005 -1.1315,0.37709 -1.3123,0.84831c-0.2801,0.72998 -1.2783,0.81405 -6.7457,0.56808c-6.8512,-0.30824 -8.5351,0.0571 -7.2729,1.57794c2.114,2.54726 10.7347,5.27844 16.6609,5.27844c3.5804,0 5.4503,0.66961 5.4503,1.95171c0,0.64178 -0.8832,0.80599 -4.2786,0.79553c-2.3533,-0.007 -5.2724,-0.27483 -6.487,-0.59464c-1.2146,-0.3198 -6.9373,-0.69401 -12.7171,-0.83157c-10.221,-0.24325 -10.5112,-0.2197 -10.5925,0.85981c-0.08,1.06172 0.5939,1.8264 1.7784,2.01805c0.3037,0.0491 2.6854,0.4913 5.2928,0.9826c8.5331,1.60789 16.1097,2.58732 23.8643,3.08501c7.1845,0.46109 9.6347,1.09337 8.8923,2.29462c-0.1695,0.27419 -0.5455,0.3518 -0.8357,0.17245c-0.2902,-0.17935 -0.4594,0.003 -0.3759,0.40506c0.084,0.40436 -0.2774,0.69731 -0.8085,0.65545c-0.5281,-0.0416 -0.8409,0.11746 -0.695,0.35352c0.146,0.23607 -0.578,0.58743 -1.6088,0.78081c-2.228,0.41797 -2.7563,1.41311 -1.6152,3.04231c0.6081,0.86814 0.673,1.38578 0.2392,1.90844c-0.7114,0.85711 -0.2468,1.44371 1.1435,1.44371c0.5567,0 1.0121,0.1039 1.0121,0.23088c0,0.127 0.1649,0.66065 0.3665,1.1859c0.3367,0.87736 -0.034,0.92524 -4.5547,0.5889c-2.7066,-0.20136 -5.8528,-0.51376 -6.9915,-0.69422c-1.6476,-0.26112 -2.0703,-0.15232 -2.0703,0.53299c0,0.4736 -0.4004,1.08519 -0.8899,1.3591c-1.2638,0.70728 -0.505,3.88831 1.08,4.52763c1.1332,0.45711 1.1374,0.48359 0.086,0.55386c-1.1042,0.0738 -1.1042,0.0738 0,0.54827c1.077,0.46283 -0.4275,0.66066 -6.0729,0.79851c-2.3549,0.0575 -4.1407,0.80064 -4.1407,1.72306c0,0.49294 -0.572,0.79376 -1.5182,0.79846c-0.835,0.005 -2.083,0.15885 -2.7733,0.34379c-1.1771,0.3154 -1.1943,0.38235 -0.276,1.07907c0.5384,0.40855 1.6586,0.75071 2.4893,0.76037c0.8306,0.01 3.1493,0.88709 5.1526,1.94984c2.0205,1.07191 4.4462,1.9323 5.4478,1.9323c3.3457,0 8.5643,0.7029 8.3072,1.11889c-0.1403,0.22698 0.1675,0.37863 0.684,0.337c0.5165,-0.0416 1.0277,0.35243 1.1359,0.87568c0.2513,1.21475 -3.0085,3.30897 -4.6899,3.01295c-0.6726,-0.11842 -1.3133,0.0558 -1.4237,0.387c-0.2603,0.78099 -6.7035,1.00177 -9.2806,0.31802c-1.0944,-0.29035 -6.7464,-0.59525 -12.5599,-0.67754c-9.8285,-0.13913 -12.72669,0.14272 -9.0519,0.8803c0.8351,0.16761 2.6362,0.55764 4.0026,0.86675c1.3664,0.3091 3.5402,0.57282 4.8307,0.58604c1.2905,0.0133 2.3464,0.27249 2.3464,0.57613c0,0.30365 0.389,0.55209 0.8644,0.55209c0.4754,0 1.3745,0.27295 1.9977,0.60654c1.1211,0.59995 1.1191,0.61364 -0.1743,1.25849c-2.2648,1.12916 -1.563,2.19438 2.2432,3.40458c1.9529,0.62094 3.6671,1.49048 3.8093,1.93228c0.1422,0.44181 0.4782,0.94737 0.7466,1.12347c0.8444,0.55408 -0.1664,2.25742 -1.1221,1.8907c-0.4829,-0.18532 -0.7257,-0.18455 -0.5394,0.002c0.1863,0.18628 -0.2875,0.96491 -1.053,1.7303c-1.0067,1.00679 -2.0449,1.41689 -3.7542,1.48305c-1.2996,0.0503 -2.2625,0.25391 -2.1397,0.45249c0.1227,0.19857 -2.1545,0.23929 -5.0605,0.0905c-4.2248,-0.21631 -5.4693,-0.10279 -6.2097,0.5664c-1.0282,0.9293 -6.4501,1.31239 -9.27832,0.65558c-1.07993,-0.25079 -1.86806,-0.17337 -2.10288,0.20657c-0.20659,0.33424 -0.96172,0.60769 -1.67808,0.60769c-1.66093,0 -3.04902,0.52958 -3.04902,1.16324c0,0.27115 0.3603,0.49301 0.80069,0.49301c0.44038,0 1.01152,0.37669 1.26914,0.83709c0.29067,0.51939 2.44882,1.22237 5.68627,1.85226c6.3786,1.24101 11.0742,3.13837 10.6302,4.29536c-0.1705,0.44435 -0.6636,0.67225 -1.0956,0.50645c-0.4321,-0.1658 -0.6468,-0.0768 -0.4772,0.19756c0.1697,0.27446 -0.3428,1.27304 -1.1389,2.21908c-1.0654,1.26614 -1.7402,1.6271 -2.5571,1.3678c-0.6151,-0.1952 -0.9714,-0.12808 -0.7992,0.15054c0.1709,0.27653 -0.55331,0.52727 -1.60941,0.55721c-1.05606,0.0299 -3.66392,0.48177 -5.79527,1.00407l-3.87509,0.94965l1.23325,1.31269c0.67822,0.72199 1.46289,1.31269 1.74365,1.31269c0.28071,0 1.36299,0.4046 2.40513,0.8991c1.81684,0.86216 1.86015,0.95168 1.05566,2.17954c-0.52866,0.80682 -0.63369,1.4073 -0.28403,1.62342c0.30527,0.18865 0.39565,0.60078 0.20093,0.91585c-0.22842,0.3696 -0.52549,0.30709 -0.83716,-0.17617c-0.31343,-0.48602 -0.62847,-0.55123 -0.89712,-0.18572c-0.22774,0.30983 -1.15938,0.92275 -2.07031,1.36207l-1.65625,0.79875l1.74731,0.18764c1.8919,0.20316 2.90332,1.61987 1.53208,2.14606c-0.46343,0.17784 -0.97998,0.18605 -1.14775,0.0182c-0.16782,-0.16781 -1.13208,0.15939 -2.14282,0.72709c-1.01075,0.56771 -2.78189,1.20933 -3.93584,1.42581c-1.15406,0.21649 -2.43272,0.72813 -2.84151,1.137c-0.96855,0.96846 -1.34761,0.94712 -6.47744,-0.36488c-4.60381,-1.17746 -5.90151,-1.0677 -7.79043,0.65883c-1.06553,0.97391 -1.49546,1.02188 -4.38003,0.48864c-3.78384,-0.69948 -10.91235,-0.78908 -10.50625,-0.13206c0.1561,0.25258 2.09614,0.76827 4.31123,1.14597c5.64341,0.9623 6.27852,1.16901 5.35181,1.74176c-1.6064,0.9928 5.58672,3.33643 12.6166,4.11069c1.89834,0.20908 3.57192,0.57493 3.71904,0.81301c0.14717,0.23809 -0.25351,1.09527 -0.89033,1.90486c-1.06953,1.35972 -1.09004,1.54695 -0.26851,2.45471c0.48912,0.5405 0.88936,1.1186 0.88936,1.28468c0,0.68229 -9.34863,-0.2995 -12.42187,-1.30454c-4.41924,-1.44523 -13.36763,-2.50003 -14.19449,-1.6732c-0.43725,0.43733 -0.44116,0.81288 -0.0137,1.32807c0.5773,0.69561 1.46265,0.99316 8.82525,2.96604c2.29609,0.61526 3.45048,1.2028 3.45048,1.75612c0,0.69929 -0.65141,0.77249 -4.09624,0.46033c-2.62441,-0.23781 -4.22309,-0.16599 -4.44926,0.19989c-0.1941,0.31409 -0.0488,0.57109 0.32368,0.57109c0.37221,0 0.54814,0.12859 0.39096,0.28575c-0.37011,0.37013 -8.18901,-1.27074 -8.96645,-1.88168c-0.61128,-0.48037 -8.67319,-1.7221 -10.39268,-1.60072c-0.53139,0.0375 -0.96616,0.37911 -0.96616,0.75914c0,0.38003 -0.12851,1.02583 -0.28555,1.43511c-0.27133,0.70706 6.4709,2.13654 18.08912,3.83523c1.74541,0.25519 4.07382,0.84017 5.17426,1.29995c1.10039,0.45977 2.77779,0.83733 3.72754,0.83903c2.50034,0.005 6.09151,1.09788 5.51133,1.67807c-0.2687,0.26869 -3.63076,0.55934 -7.47134,0.64588c-3.84057,0.0865 -6.94155,0.1995 -6.89111,0.25102c0.0503,0.0515 1.31938,0.57591 2.81982,1.1653c2.61304,1.02638 2.67549,1.09976 1.48145,1.7388c-0.93516,0.50047 -1.93442,0.51969 -3.99907,0.0768c-3.36011,-0.7206 -3.80235,-0.73015 -3.80235,-0.0821c0,0.27952 0.74248,0.6713 1.64991,0.87061c3.01801,0.66286 2.3644,1.38159 -1.2564,1.38159c-2.10733,0 -4.23828,0.35019 -5.27344,0.86658c-1.04741,0.52252 -2.22217,0.71263 -2.95889,0.47881c-1.57495,-0.49986 -27.49599,-0.6905 -27.19287,-0.19998c0.64219,1.03912 -6.60029,1.03379 -12.78012,-0.01c-12.515,-2.11264 -23.16295,-3.31351 -30.0317,-3.38697c-3.79561,-0.0406 -9.50962,-0.41518 -12.6979,-0.83245c-3.18828,-0.41726 -8.86822,-1.01479 -12.62207,-1.32786c-3.75391,-0.31306 -6.9836,-0.66475 -7.1771,-0.78154c-0.19351,-0.11679 -2.21509,-0.37094 -4.49243,-0.56478c-2.27735,-0.19385 -5.01016,-0.45753 -6.0729,-0.58599c-2.21231,-0.26739 -12.28511,-0.82903 -19.59893,-1.09278c-5.29062,-0.1908 -13.32974,-0.6986 -18.77075,-1.18567c-1.82188,-0.1631 -8.90235,-0.40249 -15.73438,-0.53199c-6.83198,-0.12951 -14.9062,-0.43909 -17.94262,-0.68795c-3.03648,-0.24888 -11.43428,-0.42779 -18.66182,-0.39757c-10.93013,0.0456 -13.22905,0.19182 -13.66401,0.86861c-0.4438,0.69039 -0.59825,0.69696 -1.01929,0.0434c-0.33052,-0.51313 -1.04087,-0.66136 -2.12778,-0.44397c-0.89956,0.17991 -1.90274,0.0552 -2.23589,-0.27795c-0.33238,-0.33236 -1.42447,-0.65667 -2.42686,-0.72073c-1.00244,-0.0641 -2.31948,-0.26357 -2.92676,-0.44339c-3.30849,-0.9797 -6.75566,-1.26458 -8.14443,-0.67308c-1.11479,0.47483 -3.89741,-0.0861 -3.51294,-0.70818c0.1416,-0.22917 -2.51894,-0.48345 -5.9123,-0.56506c-9.13785,-0.21975 -10.08545,-0.32017 -11.11958,-1.17847c-0.84068,-0.69769 -0.92456,-0.6656 -0.75821,0.28998c0.12681,0.72832 -0.0797,1.01129 -0.64101,0.87834c-0.45547,-0.10787 -1.38711,-0.20103 -2.07031,-0.20703c-0.68321,-0.006 -1.24219,-0.2017 -1.24219,-0.4349c0,-0.23321 -0.40029,-0.57762 -0.88955,-0.76537c-0.64599,-0.24789 -0.79892,-0.10502 -0.55843,0.52169c0.22823,0.59468 0.11858,0.72794 -0.35262,0.42856c-0.37607,-0.23897 -3.0439,-0.5125 -5.92853,-0.60784c-6.0665,-0.20052 -5.16473,-0.19791 -33.67699,-0.0974c-11.99399,0.0423 -23.34325,-0.10251 -25.22066,-0.32181c-1.87735,-0.21929 -3.83111,-0.23841 -4.34168,-0.0426c-0.93965,0.36058 -18.97483,1.07251 -24.51586,0.96776c-4.33335,-0.0819 -9.24787,2.46563 -6.51428,3.37682c0.40749,0.13582 0.12564,0.52649 -0.69011,0.95679c-0.75828,0.39997 -1.51662,0.93694 -1.68524,1.19324c-0.60927,0.92634 -5.29721,1.44318 -6.62835,0.73078c-0.83888,-0.44895 -3.06178,-0.61019 -6.5574,-0.47565c-2.9086,0.11195 -12.46217,0.33463 -21.23016,0.49483c-8.768,0.1602 -16.54513,0.4427 -17.28251,0.62776c-0.73739,0.18507 -3.87148,0.37452 -6.96466,0.42099c-3.0932,0.0465 -6.12085,0.36373 -6.72815,0.70503c-1.0866,0.61067 -6.20657,1.61308 -7.06372,1.38295c-1.0563,-0.2836 -3.0176,-0.21231 -4.80603,0.1747c-1.06277,0.22998 -2.42916,0.37651 -3.03646,0.32564c-0.60728,-0.0509 -1.60103,-0.13633 -2.20832,-0.1899c-0.60729,-0.0535 -3.46431,0.19435 -6.34894,0.55096c-2.88463,0.3566 -6.31883,0.6432 -7.63156,0.63689c-1.31273,-0.006 -2.67914,0.22359 -3.03645,0.5109c-0.35732,0.2873 -1.45709,0.69502 -2.44394,0.90603c-1.4686,0.31403 -1.79426,0.21409 -1.79426,-0.55063c0,-0.82768 -0.45672,-0.88971 -4.0026,-0.54356c-2.20143,0.21491 -7.97758,0.44799 -12.8359,0.51797c-4.85832,0.07 -10.17151,0.41908 -11.8071,0.77574c-1.63557,0.35667 -3.09451,0.64849 -3.24206,0.64849c-0.14756,0 0.0409,0.37266 0.41899,0.82813c0.37801,0.45547 1.52638,0.82811 2.55196,0.82811c1.02558,0 1.86469,0.10391 1.86469,0.23089c0,0.12699 0.1508,0.62387 0.33511,1.10417c0.45959,1.19769 -1.09487,1.13881 -2.32162,-0.088c-0.69501,-0.69501 -1.02478,-0.77051 -1.19075,-0.2726c-0.12625,0.37873 -0.45675,0.54819 -0.73446,0.37655c-0.27765,-0.17149 -0.50487,-0.11093 -0.50487,0.13472c0,0.24566 -0.55899,0.4771 -1.24219,0.51433c-0.6832,0.0372 -4.47186,0.34887 -8.41925,0.69253c-3.94738,0.34366 -11.89736,0.72434 -17.66662,0.84597c-5.76925,0.12161 -11.11065,0.35733 -11.86976,0.52382c-2.57206,0.56411 -16.71356,1.87221 -24.29161,2.24701c-14.04184,0.69448 -24.68756,2.70279 -26.88272,5.07139c-0.68665,0.74091 -1.8965,1.33915 -2.76532,1.36739c-7.14428,0.23216 -17.0654,0.97619 -21.41953,1.60632c-1.82187,0.26367 -5.01792,0.63173 -7.10233,0.81793c-2.08441,0.1862 -5.03745,0.57515 -6.56231,0.86434c-1.52487,0.28918 -2.8628,0.52579 -2.97318,0.52579c-0.11037,0 -0.20068,-0.63576 -0.20068,-1.41279l0.00016,0.0009zm0,-5.02318c0,-0.60393 -0.24454,-0.64907 -1.08361,-0.20002c-0.64743,0.3465 -0.95481,0.91556 -0.76365,1.41372c0.24655,0.64249 0.49516,0.68839 1.08361,0.20002c0.42,-0.34857 0.76365,-0.98474 0.76365,-1.41372zm93.0258,-8.21126c2.15989,-0.77471 2.1054,-0.78603 -2.48437,-0.5169c-10.5103,0.6163 -13.80205,0.92853 -13.80205,1.30919c0,0.72025 13.96327,0.0409 16.28642,-0.79229zm-256.44205,-6.66699c0,-0.11934 -0.37266,-0.21697 -0.82813,-0.21697c-0.45547,0 -0.82812,0.24064 -0.82812,0.53475c0,0.29411 0.37265,0.39175 0.82812,0.21697c0.45547,-0.17478 0.82813,-0.41542 0.82813,-0.53475zm40.02594,-1.87322c0.19271,-0.31182 -0.25945,-0.55208 -1.03901,-0.55208c-0.75911,0 -1.53374,0.24843 -1.72141,0.55208c-0.19271,0.31182 0.25945,0.55209 1.03901,0.55209c0.75911,0 1.53374,-0.24844 1.72141,-0.55209zm-26.2239,-2.82477c0,-0.56965 -0.66104,-0.6231 -1.88713,-0.15262c-1.38534,0.53161 -1.01352,1.19484 0.50692,0.90418c0.75912,-0.14511 1.38021,-0.48331 1.38021,-0.75156zm312.38775,-0.0899c1.88384,-0.52475 2.14251,-0.72633 1.21434,-0.94632c-1.47315,-0.34915 -19.03834,0.38871 -28.45178,1.1952c-2.55799,0.21915 17.19686,0.75425 21.25516,0.57575c1.9737,-0.0868 4.66572,-0.4579 5.98228,-0.82463zm19.13744,-1.6991c0.6073,-0.14367 -0.51067,-0.24099 -2.48436,-0.21624c-4.71083,0.0591 -6.57559,0.56624 -3.58854,0.97605c1.21458,0.16663 2.82943,0.12262 3.58854,-0.0978c0.75911,-0.22042 1.87708,-0.51833 2.48436,-0.662l0,-0.00001zm-352.32113,0.1622c1.13677,-0.0332 1.12937,-0.062 -0.14714,-0.57201c-1.50522,-0.60136 -2.79644,-0.30182 -2.79644,0.64875c0,0.34627 0.39213,0.478 0.87328,0.29337c0.48029,-0.18431 1.41193,-0.35085 2.0703,-0.37011zm360.61476,-0.62148c0.14765,-0.14767 -0.83504,-0.31021 -2.18378,-0.36123c-1.34873,-0.051 -2.62391,0.185 -2.83372,0.52448c-0.26812,0.43382 0.38079,0.54116 2.18377,0.36122c1.41088,-0.14079 2.68606,-0.3768 2.83373,-0.52447zm431.71565,-6.52059c0.21128,-0.34187 -0.66968,-0.5272 -2.31377,-0.48675c-2.35699,0.058 -2.46909,0.11261 -0.99873,0.48675c2.41577,0.61471 2.93261,0.61471 3.3125,0zm-850.93074,-8.10627c-0.39854,-0.15948 -0.8747,-0.13987 -1.05815,0.0436c-0.18346,0.18346 0.14261,0.31394 0.7246,0.28997c0.64315,-0.0265 0.77396,-0.15731 0.33355,-0.33354l0,-0.00003zm857.4522,7.37923c1.10955,-0.35533 1.16368,-0.44519 0.27605,-0.45824c-0.6073,-0.009 -1.60104,0.19729 -2.20833,0.45824c-1.40683,0.60455 0.0446,0.60455 1.93228,0zm7.40796,0.21699c0.48031,-0.18432 0.87328,-0.78177 0.87328,-1.32768c0,-0.84566 -0.34725,-0.94916 -2.34635,-0.69931c-2.53685,0.31707 -4.19228,1.25792 -2.21331,1.25792c0.6501,0 1.33554,0.24844 1.52321,0.55208c0.39273,0.63547 0.93171,0.68954 2.16317,0.21699zm896.90221,-9.60238c0,-0.30364 -0.43477,-0.54827 -0.96612,-0.54362c-0.82564,0.007 -0.84575,0.0862 -0.13805,0.54362c1.0419,0.67333 1.10417,0.67333 1.10417,0zm-1734.15829,-30.56668c-0.39853,-0.15947 -0.87471,-0.13986 -1.05815,0.0436c-0.18345,0.18346 0.14262,0.31393 0.72461,0.28997c0.64314,-0.0266 0.77396,-0.15732 0.33354,-0.33355l0,-0.00002zm1729.63813,28.95594c0,-0.89983 -1.53547,-1.00102 -3.55259,-0.23411c-2.19595,0.83489 -1.6748,1.42239 1.06822,1.20423c1.66668,-0.13255 2.48437,-0.45186 2.48437,-0.97012zm10.25469,0.39827c-0.55127,-0.89198 -2.52555,-1.11946 -2.52555,-0.29099c0,0.46492 0.56682,0.77643 1.41279,0.77643c0.77703,0 1.27777,-0.21845 1.11276,-0.48544zm-4.1818,-0.61872c0.61598,-0.39807 0.29779,-0.53734 -1.24219,-0.54363c-1.13866,-0.005 -2.0703,0.23999 -2.0703,0.54363c0,0.70319 2.22439,0.70319 3.31249,0zm-813.83776,-95.16026c0,-0.30364 -0.2484,-0.55208 -0.5521,-0.55208c-0.3036,0 -0.552,0.24844 -0.552,0.55208c0,0.30364 0.2484,0.55208 0.552,0.55208c0.3037,0 0.5521,-0.24844 0.5521,-0.55208zm817.84036,84.85715c-0.3795,-0.15315 -1.0006,-0.15315 -1.3801,0c-0.3796,0.15316 -0.069,0.27847 0.69,0.27847c0.7592,0 1.0697,-0.12531 0.6901,-0.27847zm-8.28119,-6.64897c-0.6832,-0.13159 -1.8011,-0.13159 -2.48431,0c-0.68319,0.13159 -0.12429,0.23926 1.2421,0.23926c1.36641,0 1.92541,-0.10767 1.2422,-0.23926l0.00001,0zm-25.5338,-4.45679c0,-0.23636 -2.04958,-0.72437 -4.55466,-1.08447c-2.50508,-0.36009 -5.15254,-0.82693 -5.88321,-1.03741c-0.825,-0.23765 -1.20058,-0.17568 -0.99091,0.16352c0.18569,0.30043 2.52255,0.8623 5.19306,1.2486c2.67056,0.38629 5.10392,0.78111 5.40762,0.87735c0.3036,0.0963 0.6142,0.19461 0.6901,0.21858c0.076,0.0239 0.138,-0.1498 0.138,-0.38617zm-805.21146,-5.09106c0.98592,-0.42367 0.94507,-0.47864 -0.38148,-0.51327c-0.81711,-0.0214 -1.63919,0.20962 -1.82685,0.51327c-0.40735,0.6591 0.67452,0.6591 2.20833,0zm801.34689,-3.23454c0,-0.26078 -2.49327,-0.75765 -5.54058,-1.10417c-6.86387,-0.7805 -8.09644,-0.79625 -7.39469,-0.0945c0.29453,0.29454 3.26333,0.75668 6.59736,1.02701c3.33404,0.27031 6.12399,0.52621 6.19992,0.56865c0.0759,0.0425 0.13798,-0.13619 0.13798,-0.39696l0.00001,-0.00003zm-832.32035,-6.61092c0.15639,-0.25304 -0.0773,-0.46007 -0.5195,-0.46007c-0.44211,0 -0.80384,0.20703 -0.80384,0.46007c0,0.25304 0.23378,0.46007 0.5195,0.46007c0.28572,0 0.64745,-0.20703 0.80384,-0.46007zm73.86332,-1.02123c-0.39854,-0.15948 -0.87471,-0.13988 -1.05816,0.0435c-0.18345,0.18346 0.14262,0.31395 0.7246,0.28997c0.64316,-0.0266 0.77397,-0.15731 0.33356,-0.33354l0,0.00007zm-85.67621,-0.72703c0,-0.30365 -0.43477,-0.54828 -0.96614,-0.54364c-0.82568,0.007 -0.84575,0.0862 -0.13803,0.54364c1.04189,0.67332 1.10417,0.67332 1.10417,0zm2.20832,-0.86071c0,-0.1339 -0.24843,-0.24345 -0.55208,-0.24345c-0.30364,0 -0.55208,0.26309 -0.55208,0.58465c0,0.32158 0.24844,0.43113 0.55208,0.24346c0.30365,-0.18765 0.55208,-0.45076 0.55208,-0.58466zm31.46867,-3.84395c0.75911,-0.21221 3.11927,-0.59317 5.24479,-0.84658c2.1255,-0.25342 4.7341,-0.72339 5.79685,-1.04434c1.06275,-0.32095 1.93228,-0.56279 1.93228,-0.5374c0,0.21162 3.78161,-0.96973 5.65883,-1.76778c2.84817,-1.21084 3.02805,-2.14086 0.41407,-2.14086c-1.34952,0 -1.93228,-0.24976 -1.93228,-0.82813c0,-0.84902 2.47091,-1.18467 6.57243,-0.89277c1.78683,0.12715 6.88497,-0.82437 8.05217,-1.50284c0.87182,-0.50673 -1.91427,-1.07812 -5.54859,-1.13789c-2.36435,-0.0391 -4.37896,0.34981 -6.86769,1.32515c-1.93702,0.75913 -4.03373,1.38403 -4.65935,1.38867c-0.90603,0.007 -0.97435,0.11167 -0.33575,0.51563c0.44097,0.279 0.99995,0.38471 1.24218,0.23501c0.24224,-0.14971 0.44043,-0.0371 0.44043,0.2498c0,0.49434 -1.20846,0.84336 -5.4252,1.56704c-1.01017,0.17334 -1.97082,0.66475 -2.13479,1.09204c-0.24375,0.63521 -0.45619,0.64844 -1.16512,0.0727c-0.72614,-0.58979 -0.81419,-0.56284 -0.54187,0.16567c0.23786,0.63643 0.006,0.84517 -0.86278,0.77774c-0.65335,-0.0507 -2.01228,0.1332 -3.01985,0.40864c-1.27037,0.34732 -2.07422,0.29971 -2.62238,-0.15522c-0.44457,-0.36895 -0.79047,-0.41768 -0.79047,-0.11133c0,0.60903 -4.2065,2.35093 -5.67729,2.35093c-0.52124,0 -0.94769,0.33964 -0.94769,0.75478c0,0.56196 0.74032,0.71548 2.89843,0.60098c1.59414,-0.0846 3.51952,-0.32735 4.27863,-0.5396l0.00001,-0.00004zm22.71084,-20.02188c-0.3983,-0.13276 -0.98666,0.021 -1.30748,0.34195c-0.40968,0.40966 -0.19413,0.48149 0.72418,0.24135c0.74652,-0.19521 0.99678,-0.44545 0.5833,-0.5833zm666.83837,-2.18745c0,-0.22773 -0.75478,-0.46684 -1.67607,-0.53139c-0.95869,-0.0672 -1.53452,0.10986 -1.34653,0.41406c0.38491,0.62275 3.02422,0.72524 3.0226,0.11733zm-665.2576,-3.47798l1.38021,-0.0425l-1.28779,-0.51616c-1.45478,-0.58315 -3.957,-0.13393 -3.957,0.71035c0,0.30782 0.55525,0.40782 1.24219,0.22373c0.6832,-0.1831 1.86327,-0.352 2.62239,-0.37544l0,0.00002zm660.84203,0.11949c0,-0.25303 -0.37266,-0.46006 -0.82808,-0.46006c-0.45547,0 -0.82812,0.20703 -0.82812,0.46006c0,0.25302 0.37265,0.46005 0.82812,0.46005c0.45542,0 0.82808,-0.20703 0.82808,-0.46005zm2.31186,0.0829c-0.39853,-0.15948 -0.8747,-0.13985 -1.05815,0.0435c-0.1835,0.1835 0.14263,0.31397 0.72461,0.28999c0.64316,-0.0264 0.77392,-0.15732 0.33354,-0.33354l0,0.00005zm-1467.50275,-96.26436c-0.39854,-0.15953 -0.87471,-0.13985 -1.05817,0.0435c-0.18344,0.18345 0.14263,0.31397 0.72461,0.28994c0.64315,-0.0264 0.77397,-0.15727 0.33356,-0.33349l0,0.00005zm1405.56606,95.53731c0,-0.30362 -0.24844,-0.55206 -0.55209,-0.55206c-0.30364,0 -0.55208,0.24844 -0.55208,0.55206c0,0.30366 0.24844,0.55209 0.55208,0.55209c0.30365,0 0.55209,-0.24843 0.55209,-0.55209zm14.35413,-1.44776c0,-0.61855 -1.03682,-0.0762 -1.33378,0.69776c-0.29076,0.75766 -0.20998,0.79184 0.49302,0.20839c0.46241,-0.38374 0.84076,-0.79155 0.84076,-0.90615zm5.52081,0.0676c0,-0.45547 -0.0977,-0.82813 -0.21697,-0.82813c-0.11934,0 -0.35997,0.37266 -0.53476,0.82813c-0.17477,0.45547 -0.0772,0.82812 0.21697,0.82812c0.29413,0 0.53476,-0.37265 0.53476,-0.82812zm722.77874,-18.87188c-0.39854,-0.15952 -0.87471,-0.13984 -1.05816,0.0435c-0.18345,0.18345 0.14262,0.31397 0.72461,0.28994c0.64316,-0.0264 0.77398,-0.15727 0.33355,-0.33349l0,0.00005zm-1975.82123,-107.44292c0.17469,-0.28267 0.0912,-0.65386 -0.18561,-0.8249c-0.27678,-0.1711 -0.64569,0.0602 -0.8198,0.51391c-0.34323,0.89444 0.48625,1.15103 1.00541,0.31099zm1713.77233,344.38594c-0.31773,-0.37955 -0.36094,-0.69765 -0.096,-0.70688c0.26491,-0.009 0.0171,-0.2867 -0.55072,-0.61658c-1.45659,-0.84626 -0.16617,-1.57169 2.68862,-1.51148c1.491,0.0314 1.84967,0.16321 1.10417,0.40561c-1.05192,0.34204 -1.83606,1.74754 -0.96616,1.7317c1.62103,-0.0296 2.79171,-0.75111 2.53912,-1.56509c-0.2466,-0.79474 -0.18075,-0.78775 0.51313,0.0544c0.94293,1.14444 5.14411,1.35502 5.50726,0.27605c0.18445,-0.54806 0.40892,-0.54434 1.09051,0.0182c1.07471,0.88681 1.70891,3.04159 0.79609,2.70484c-0.35565,-0.1312 -0.56616,-0.57319 -0.46779,-0.98218c0.12509,-0.52004 -0.12831,-0.46563 -0.84283,0.18101c-0.81591,0.73837 -2.00014,0.90206 -5.8797,0.81262c-3.08507,-0.0711 -5.06884,-0.36384 -5.43569,-0.80209l-0.00001,-0.00013zm-7.57862,-1.21688c-0.73543,-0.45452 -0.38176,-1.68154 0.48467,-1.68154c0.62977,0 1.18266,1.55893 0.66612,1.87817c-0.22898,0.14152 -0.74683,0.053 -1.15079,-0.19663zm11.68091,-4.44195c-0.61063,-0.97779 -0.54684,-1.11379 0.55731,-1.18826c0.68577,-0.0462 1.61951,-0.12467 2.07498,-0.17427c1.47271,-0.1604 1.74981,0.34408 0.77852,1.41734c-1.22701,1.35582 -2.54305,1.33468 -3.41081,-0.0548l0,-0.00001zm334.43353,-4.10803c0,-0.13391 0.24843,-0.397 0.55208,-0.58467c0.30365,-0.18766 0.55209,-0.0781 0.55209,0.24346c0,0.32156 -0.24844,0.58467 -0.55209,0.58467c-0.30365,0 -0.55208,-0.10956 -0.55208,-0.24346zm6.47776,-0.37714c0.37449,-0.37729 0.81997,-0.54692 0.98995,-0.37694c0.16998,0.16998 -0.13643,0.47868 -0.6809,0.686c-0.78682,0.2996 -0.85024,0.23619 -0.30905,-0.30906zm-296.32077,-1.52014c0,-0.26646 0.38318,-0.8025 0.85151,-1.19118c0.66201,-0.54941 0.99889,-0.55933 1.51362,-0.0446c0.51473,0.51474 0.47881,0.77797 -0.16142,1.18274c-1.04109,0.65819 -2.20371,0.68618 -2.20371,0.053l0,0.00004zm623.30049,-5.03633c0,-0.30365 0.35796,-0.55208 0.79556,-0.55208c0.4375,0 0.94907,0.24843 1.13672,0.55208c0.18765,0.30365 -0.17031,0.55209 -0.79556,0.55209c-0.62519,0 -1.13672,-0.24844 -1.13672,-0.55209zm-9.3854,-0.58639c0,-0.62848 1.48311,-0.69245 1.86148,-0.0803c0.14873,0.24061 -0.20933,0.47362 -0.79556,0.51778c-0.58628,0.0442 -1.06592,-0.15271 -1.06592,-0.43748zm-547.50283,-0.89083c-0.49683,-1.29469 0.26019,-1.48465 2.16838,-0.54412c0.9954,0.49062 1.56137,0.9294 1.25772,0.97506c-2.3267,0.34992 -3.16702,0.24423 -3.4261,-0.43094zm477.38843,-1.28319c0,-0.30365 0.10952,-0.55208 0.24346,-0.55208c0.13388,0 0.39702,0.24843 0.58466,0.55208c0.18765,0.30365 0.0781,0.55209 -0.24345,0.55209c-0.32154,0 -0.58467,-0.24844 -0.58467,-0.55209zm-7.95942,-0.47798c-0.2378,-0.38481 -0.28326,-0.84874 -0.10103,-1.03097c0.49404,-0.49409 1.03276,0.23259 0.76597,1.03319c-0.18706,0.56101 -0.31709,0.56058 -0.66494,-0.003l0,0.00078zm2.02456,0.11235c-1.13023,-0.45606 -0.78223,-1.21132 0.41406,-0.89849c0.60727,0.1588 1.10415,0.5082 1.10415,0.77643c0,0.52634 -0.43052,0.56095 -1.51821,0.12206zm264.67724,-2.76283c-0.63525,-0.63524 -0.40205,-1.28819 0.46006,-1.28819c0.45547,0 0.82812,0.37265 0.82812,0.82812c0,0.86211 -0.65293,1.09531 -1.28818,0.46007zm-685.15483,-3.38191c-0.14871,-0.24062 0.21466,-0.47403 0.80747,-0.51868c0.59282,-0.0446 0.9336,0.15221 0.7573,0.43748c-0.39118,0.63295 -1.1979,0.67481 -1.56477,0.0812zm4.97644,-0.94832c0.1736,-0.45239 0.72383,-0.84168 1.22272,-0.86506c0.49889,-0.0234 2.02504,-0.15442 3.39144,-0.29119c1.79171,-0.17934 2.25348,-0.0929 1.65625,0.3101c-0.68322,0.46101 -0.69128,0.56027 -0.046,0.56724c0.43015,0.005 0.62729,0.16327 0.43806,0.3525c-0.18922,0.18923 -1.83671,0.43515 -3.66108,0.54651c-2.76339,0.16866 -3.26434,0.0651 -3.00139,-0.6201zm-2201.12561,-108.77944c-0.4083,-0.66063 0.63027,-1.31519 1.36563,-0.86071c0.61742,0.38159 0.21209,1.37465 -0.56109,1.37465c-0.2678,0 -0.62985,-0.23128 -0.80454,-0.51394zm2206.3468,94.41974c0,-0.28572 0.2456,-0.67129 0.54577,-0.85679c0.31296,-0.19342 0.4055,0.0282 0.21697,0.5195c-0.36701,0.95643 -0.76274,1.13142 -0.76274,0.33729zm4.04861,-0.28433c0,-0.44212 0.21108,-0.67338 0.46907,-0.51394c0.25799,0.15944 0.32614,0.52117 0.15145,0.80384c-0.44643,0.72233 -0.62052,0.641 -0.62052,-0.2899zm-1239.03083,-180.85042c-0.4555,-0.29434 -0.5797,-0.53518 -0.276,-0.53518c0.3036,0 0.9247,0.24084 1.3801,0.53518c0.4555,0.29435 0.5797,0.53518 0.2761,0.53518c-0.3036,0 -0.9247,-0.24083 -1.3802,-0.53518zm331.96021,139.87888c0,-0.23904 0.49687,-0.4346 1.10417,-0.4346c0.60728,0 1.10416,0.233 1.10416,0.51776c0,0.28478 -0.49688,0.48035 -1.10416,0.4346c-0.6073,-0.0458 -1.10417,-0.27874 -1.10417,-0.51776zm930.18997,32.86367l-1.29459,-1.04829l3.30373,-0.43858c1.81705,-0.24121 4.60773,-0.45268 6.2015,-0.46993c1.59377,-0.0173 2.89806,-0.20035 2.89843,-0.40688c0.00053,-0.42984 3.28894,0.42622 3.80219,0.98986c0.18651,0.20481 -0.42731,0.22689 -1.36402,0.0491c-1.04846,-0.19903 -2.32175,0.004 -3.3125,0.52735c-0.88516,0.46787 -2.91367,0.87472 -4.5078,0.9041c-1.59414,0.0294 -2.89844,0.25329 -2.89844,0.49751c0,0.79142 -1.50093,0.47079 -2.8285,-0.60421l0,-0.00003zm-6.95945,0.16265c0.18345,-0.18345 0.65962,-0.20306 1.05815,-0.0435c0.44042,0.17623 0.3096,0.30705 -0.33354,0.33354c-0.58198,0.0239 -0.90806,-0.10651 -0.72461,-0.28996l0,-0.00008zm-10.04341,-7.62563c-0.0239,-0.58198 0.10651,-0.90806 0.28996,-0.72461c0.18346,0.18346 0.20307,0.65963 0.0436,1.05816c-0.17624,0.44041 -0.30706,0.30959 -0.33355,-0.33355l-0.00001,0zm15.0778,-4.64023c0.15419,-0.24947 -0.22806,-0.88891 -0.84944,-1.42094c-1.11168,-0.95186 -1.07505,-0.99327 2.28618,-2.58286c4.04827,-1.91451 4.42099,-1.95762 4.42099,-0.51133c0,0.68032 -0.37087,1.10742 -0.96614,1.11259c-0.78306,0.007 -0.81813,0.1022 -0.18508,0.50289c0.42959,0.27192 1.23701,0.40659 1.79427,0.29931c0.55725,-0.10732 1.01319,0.058 1.01319,0.36753c0,0.30947 -0.80741,0.51846 -1.79426,0.46445c-0.98685,-0.054 -2.29114,-0.0692 -2.89844,-0.0337c-0.91987,0.0536 -0.96594,0.15371 -0.27603,0.59956c0.70771,0.45738 0.68765,0.53638 -0.13803,0.54361c-0.53138,0.005 -0.96614,0.25693 -0.96614,0.56055c0,0.30365 -0.38732,0.55208 -0.8607,0.55208c-0.47339,0 -0.73455,-0.20412 -0.58037,-0.4536l0,-0.00014zm7.0592,-4.45498c-0.55502,-0.34301 -0.53339,-0.57329 0.10345,-1.10185c0.89334,-0.74141 1.60523,-0.0938 0.99042,0.90088c-0.21919,0.35468 -0.70172,0.44331 -1.09387,0.20097zm-19.14414,-23.2476c-0.18766,-0.30367 0.0315,-0.5521 0.48693,-0.5521c0.45547,0 0.98166,0.24843 1.16932,0.5521c0.18766,0.30366 -0.0314,0.5521 -0.48692,0.5521c-0.45547,0 -0.98166,-0.24844 -1.16933,-0.5521zm11.30719,-2.47173c0.79508,-0.95796 1.11466,-1.05767 1.11466,-0.34776c0,0.2712 -0.40779,0.64952 -0.90621,0.84078c-0.75773,0.29077 -0.79188,0.21001 -0.20845,-0.49302zm780.25772,-8.90938c0.64712,-0.64717 4.18203,-1.15429 4.89517,-0.70234c0.41045,0.26006 0.49775,0.50132 0.19414,0.53608c-2.97149,0.34068 -5.34112,0.41807 -5.08931,0.16626zm-3.35166,-0.6811c-0.45894,-0.29116 -0.11572,-0.45161 0.96616,-0.45161c0.92285,0 1.67793,0.20703 1.67793,0.46006c0,0.58759 -1.71328,0.58213 -2.64409,-0.009l0,0.00055zm-14.19438,-0.70483c-2.36348,-0.52906 -8.10074,-0.90855 -18.821,-1.24478c-3.67129,-0.11519 -7.2062,-0.49365 -7.85532,-0.84102c-0.7064,-0.37807 -3.17964,-0.57041 -6.16074,-0.4791c-2.73936,0.084 -4.98057,0.0962 -4.98057,0.0269c0,-0.19209 3.21225,-1.80987 3.5937,-1.80987c0.18481,0 0.18247,0.24844 -0.005,0.55206c-0.19908,0.32211 0.36235,0.5521 1.34765,0.5521c0.92881,0 1.68882,-0.24844 1.68882,-0.5521c0,-0.30362 0.26314,-0.55206 0.58467,-0.55206c0.32158,0 0.3981,0.31055 0.17007,0.69009c-0.30654,0.51026 -0.20713,0.54444 0.38144,0.13101c0.43785,-0.30752 1.29297,-0.53062 1.90025,-0.49575c0.60732,0.0347 2.42314,0.10005 4.0352,0.14502c1.61206,0.0449 2.81568,0.26801 2.67466,0.49575c-0.14101,0.22773 1.2728,0.37768 3.14185,0.33325c1.86904,-0.0449 3.83305,0.15068 4.3644,0.4335c0.64482,0.34331 0.96616,0.31342 0.96616,-0.0897c0,-0.33228 0.30034,-0.41851 0.66734,-0.19165c0.36709,0.22686 2.78935,0.48022 5.38281,0.56309c2.59351,0.0828 4.71543,0.18002 4.71543,0.21601c0,0.0361 1.24219,0.1459 2.76045,0.24434c1.51821,0.0984 2.82251,0.23393 2.89839,0.30122c0.12954,0.11479 0.69834,0.28203 1.65625,0.48696c0.4393,0.094 -2.15215,1.69741 -2.62237,1.62261c-0.15185,-0.0244 -1.26977,-0.26636 -2.48437,-0.53823l-0.00017,0.00035zm-22.35933,-2.76026c0,-0.26567 -0.48218,-0.48306 -1.07158,-0.48306c-0.58936,0 -1.20591,0.21739 -1.37012,0.48306c-0.16426,0.26572 0.31802,0.48306 1.07153,0.48306c0.75362,0 1.37017,-0.21734 1.37017,-0.48306zm29.53081,-1.59624c-0.19072,-0.30859 -0.57803,-0.41816 -0.86069,-0.24346c-0.28267,0.17471 -0.51397,0.0692 -0.51397,-0.23442c0,-1.0689 0.89077,-1.08584 1.55044,-0.0293c0.36699,0.58765 0.55562,1.06841 0.41914,1.06841c-0.13647,0 -0.4042,-0.25249 -0.59492,-0.56103l0,-0.0002zm-11.81821,-2.15327c-0.58194,-0.58203 -1.17334,-0.94297 -1.31416,-0.8022c-0.14077,0.14087 -1.46577,0.33931 -2.94444,0.44112c-2.56128,0.17636 -5.73701,-0.96104 -4.93173,-1.76626c0.64453,-0.64458 4.45717,-0.49371 5.28999,0.20927c0.85268,0.71978 2.40634,0.74366 3.10224,0.0474c0.58589,-0.58584 3.40205,-0.45738 3.7916,0.17299c0.53033,0.85806 -0.25771,2.75547 -1.14443,2.75547c-0.43496,0 -1.26704,-0.47617 -1.84907,-1.05815l0,0.00036zm5.69814,0.42075c-0.23511,-0.38047 -0.15229,-0.48813 0.20532,-0.26709c0.32959,0.20376 0.75533,0.11787 0.946,-0.19072c0.51445,-0.83237 1.20176,-0.67959 1.20176,0.26704c0,0.97251 -1.78072,1.11685 -2.35308,0.19077zm-645.45754,-4.11279c0.18345,-0.1835 0.65962,-0.20313 1.05816,-0.0435c0.44041,0.17622 0.3096,0.30703 -0.33355,0.33355c-0.58199,0.0239 -0.90806,-0.1065 -0.72461,-0.28999l0,-0.00006zm111.37102,-15.67691c0,-0.30361 0.10956,-0.55205 0.24346,-0.55205c0.13391,0 0.397,0.24844 0.58467,0.55205c0.18767,0.30367 0.0781,0.5521 -0.24346,0.5521c-0.32156,0 -0.58467,-0.24843 -0.58467,-0.5521zm12.87351,0.0559c-0.89118,-0.65478 -0.67805,-1.5957 0.30332,-1.33911c0.62581,0.16372 1.02732,-0.0615 1.08529,-0.60864c0.0506,-0.47769 0.13342,-1.24116 0.18403,-1.69663c0.0506,-0.45547 0.54748,-0.85913 1.10417,-0.89712c0.55668,-0.0381 1.19847,-0.12031 1.4262,-0.18301c0.22774,-0.0628 1.15938,-0.31435 2.07031,-0.55923c2.02568,-0.54443 3.12595,-1.35771 2.72175,-2.01172c-0.1664,-0.26923 0.18829,-0.4895 0.7882,-0.4895c0.5999,0 1.21674,0.3105 1.37075,0.69009c0.19455,0.47949 0.41923,0.50928 0.73611,0.0978c0.81054,-1.05268 2.50087,-1.38125 3.39246,-0.65932c0.71575,0.57944 0.78298,0.56499 0.39153,-0.0844c-0.35898,-0.59546 -0.24089,-0.69502 0.49126,-0.41406c0.53012,0.20347 1.29944,0.36987 1.70961,0.36987c0.41017,0 0.89537,0.47134 1.07822,1.04747c0.21371,0.67333 0.68709,0.95468 1.32539,0.78779c1.40918,-0.36851 1.2634,-1.73355 -0.15722,-1.47212c-1.12253,0.20654 -1.12363,0.19897 -0.046,-0.31304c0.60729,-0.28852 1.94505,-0.54204 2.9728,-0.56338c1.02774,-0.0215 3.3879,-0.28247 5.24477,-0.58032c4.81276,-0.77183 16.91089,-2.12441 22.42297,-2.50684c2.58098,-0.179 5.81067,-0.42397 7.17707,-0.54438c2.87874,-0.25361 8.56186,-0.65732 16.01038,-1.1373c2.88462,-0.18589 6.85962,-0.47481 8.83331,-0.642c4.74355,-0.40185 12.21079,-0.43183 13.24997,-0.053c0.45547,0.16601 1.88397,0.49257 3.17446,0.72578c1.2905,0.23315 2.34636,0.60674 2.34636,0.83017c0,0.22339 -0.61419,1.02041 -1.36486,1.77105c-1.11114,1.11118 -1.88125,1.35478 -4.14292,1.31054c-1.65194,-0.0327 -2.70257,0.17232 -2.59182,0.50474c0.10243,0.30742 2.09898,0.57944 4.43678,0.6044c3.67143,0.0391 6.11675,0.75341 5.28225,1.54262c-0.3733,0.35313 -7.69249,0.70205 -7.69109,0.3667c0.00049,-0.16421 -1.67627,-0.2208 -3.72656,-0.12583c-2.05029,0.095 -5.15302,-0.0529 -6.89498,-0.3293c-1.74194,-0.27612 -3.28503,-0.38418 -3.42908,-0.24008c-0.14404,0.14399 -1.3274,0.31425 -2.62968,0.37832c-1.30227,0.0641 -3.05419,0.30844 -3.89317,0.54311c-0.90717,0.25376 -1.80958,0.19087 -2.22657,-0.15522c-0.38566,-0.32002 -3.10325,-0.63931 -6.03912,-0.70952c-3.63432,-0.0868 -5.2245,-0.31724 -4.98254,-0.72193c0.19548,-0.3268 -0.0663,-0.25219 -0.58169,0.16592c-0.64465,0.5229 -1.63799,0.6481 -3.18305,0.40103c-1.47496,-0.23584 -2.12607,-0.16514 -1.89672,0.20595c0.39093,0.63252 0.31819,0.64463 -4.68465,0.77906c-1.97369,0.053 -4.14751,0.29174 -4.83071,0.53051c-0.6832,0.23877 -1.24219,0.23106 -1.24219,-0.0171c0,-0.24819 -0.62109,-0.45127 -1.3802,-0.45127c-0.75911,0 -1.38021,0.18633 -1.38021,0.41407c0,0.22773 -0.38731,0.41406 -0.8607,0.41406c-0.47339,0 -0.73099,-0.20982 -0.57245,-0.46641c0.38317,-0.61997 -5.28829,0.29053 -5.69996,0.91509c-0.75363,1.14336 -11.0856,2.302 -11.0856,1.24316c0,-0.32314 -0.2631,-0.58769 -0.58467,-0.58769c-0.32157,0 -0.44173,0.2313 -0.26704,0.51396c0.49941,0.80806 -0.77079,1.30557 -1.59237,0.62369c-0.55116,-0.45743 -0.81017,-0.42945 -1.01707,0.10971c-0.17866,0.46553 -1.08715,0.67818 -2.54885,0.59644c-1.24918,-0.0698 -2.27123,0.10508 -2.27123,0.38867c0,0.91299 -2.83637,0.31343 -3.3873,-0.71597c-0.29297,-0.54741 -0.7727,-0.84697 -1.06607,-0.66567c-0.29336,0.1813 -0.40654,0.53491 -0.25151,0.78574c0.15504,0.25083 -0.0814,0.59551 -0.52539,0.76587c-0.444,0.17041 -0.95654,0.0683 -1.13899,-0.22695c-0.20225,-0.32725 -0.90947,-0.2148 -1.81195,0.28803c-1.69821,0.94629 -6.98014,1.95171 -7.65355,1.45689l0.00001,-0.00024zm-7.90476,-2.50761c0,-0.96973 0.33127,-1.1125 0.80454,-0.34678c0.1747,0.28267 0.0651,0.67002 -0.24346,0.86069c-0.30859,0.19073 -0.56108,-0.04 -0.56108,-0.51391zm2.08049,-0.95367c0.32081,-0.32084 0.90918,-0.4747 1.30747,-0.34194c0.41348,0.13784 0.16322,0.38809 -0.5833,0.5833c-0.91831,0.24014 -1.13385,0.16826 -0.72417,-0.24136zm190.18203,-1.40083c-0.6832,-0.13159 -1.24219,-0.4289 -1.24219,-0.66064c0,-0.67563 2.39951,-0.30835 2.63686,0.40361c0.11858,0.35567 0.13277,0.6128 0.0314,0.57144c-0.1012,-0.0415 -0.743,-0.18281 -1.42619,-0.31441l0.00012,0zm-11.4557,-1.26665c1.51773,-0.65214 2.38941,-0.65214 1.3802,0c-0.45547,0.29439 -1.20078,0.52159 -1.65624,0.50484c-0.54606,-0.02 -0.45199,-0.19195 0.27604,-0.50484zm3.34429,0.0514c-0.17015,-0.27534 0.18787,-0.37056 0.79555,-0.21162c1.28911,0.33711 1.45209,0.71226 0.30939,0.71226c-0.43752,0 -0.93473,-0.2253 -1.10494,-0.50064zm-71.07278,-1.24936c-0.86901,-0.87344 -0.47455,-0.93404 6.34894,-0.97515c4.00154,-0.0244 7.82928,-0.15088 8.5061,-0.28169c0.67682,-0.13081 1.3594,-0.0293 1.51687,0.22544c0.15747,0.25478 1.04654,0.4106 1.9757,0.34624c2.51212,-0.17388 2.52406,0.62988 0.0129,0.86938c-1.18735,0.11324 -2.04083,0.0147 -1.89663,-0.21835c0.45321,-0.73331 -0.39693,-0.46124 -1.26205,0.4039c-0.93922,0.93921 -3.27134,1.1083 -3.78663,0.27456c-0.22716,-0.36758 -0.70575,-0.35903 -1.4242,0.0254c-1.22231,0.65415 -2.37302,0.20962 -1.81108,-0.69961c0.24574,-0.3976 0.10944,-0.4354 -0.40506,-0.11245c-0.42646,0.26773 -2.1418,0.6188 -3.81184,0.78018c-2.38981,0.23086 -3.23378,0.0951 -3.96304,-0.63794l0.00002,0.00009zm44.26501,0.64575c0,-0.30362 0.10955,-0.55205 0.24346,-0.55205c0.13389,0 0.397,0.24843 0.58466,0.55205c0.18766,0.30366 0.0781,0.5521 -0.24346,0.5521c-0.32156,0 -0.58466,-0.24844 -0.58466,-0.5521zm-2168.18473,-222.92611c-0.49759,-0.32154 -0.56567,-0.53858 -0.17061,-0.54365c0.36164,-0.005 0.81107,0.23999 0.99873,0.54365c0.42362,0.68545 0.23249,0.68545 -0.82812,0zm2383.8192,222.85081c0.28569,-0.4622 -1.81772,-1.0059 -2.2437,-0.57988c-0.5936,0.59356 -3.04756,0.70571 -3.04756,0.13921c0,-0.35039 -1.5708,-0.43481 -4.27861,-0.22988c-3.31963,0.25127 -4.71177,0.12178 -6.21094,-0.57749c-1.06274,-0.49566 -1.51357,-0.78731 -1.00181,-0.6481c0.51177,0.13921 1.00865,0.0371 1.10415,-0.22656c0.0955,-0.26377 0.54634,-0.56035 1.00181,-0.65908c0.45547,-0.0986 1.01064,-0.42783 1.23374,-0.7315c0.2231,-0.30366 0.40942,-0.008 0.41406,0.65738c0.008,1.14331 0.0915,1.16606 1.52666,0.41631c1.36197,-0.71148 1.59693,-0.6939 2.28262,0.17075c0.72695,0.91675 0.7481,0.91665 0.4314,0c-0.25703,-0.74561 -0.0283,-0.96612 1.00244,-0.96612c0.73452,0 1.58867,0.43477 1.89819,0.96612c0.31231,0.53618 0.57017,0.65903 0.57949,0.27607c0.0176,-0.72295 1.67305,-0.99614 1.67305,-0.27607c0,0.22773 1.87813,0.3997 4.17363,0.38217c2.29551,-0.0176 4.29761,0.16875 4.44922,0.41407c0.15161,0.24526 0.80752,0.44594 1.45762,0.44594c0.9456,0 1.04399,0.13804 0.49189,0.69009c-0.69096,0.69097 -7.35615,1.01651 -6.93735,0.33882l0,-0.00225zm9.06289,-0.0166c0,-0.25307 0.18633,-0.47685 0.41406,-0.49736c0.22774,-0.0205 1.20894,-0.14126 2.18047,-0.26831c2.18433,-0.28579 2.96197,0.66133 0.86074,1.04829c-2.07739,0.38257 -3.45527,0.26992 -3.45527,-0.28262zm-39.74941,-1.84033c0.00009,-0.30361 -0.93159,-0.55205 -2.07041,-0.55205c-1.13892,0 -2.25323,0.24844 -2.47632,0.55205c-0.27041,0.36807 -0.40884,0.36807 -0.41533,0c-0.0122,-0.69165 -3.31968,-0.85527 -3.31968,-0.16416c0,0.27798 -0.22578,0.36587 -0.50171,0.19531c-0.52583,-0.32495 -5.38208,-0.84668 -10.53994,-1.13237c-1.67002,-0.0925 -3.03643,-0.22397 -3.03643,-0.29219c0,-0.37002 -7.26406,-0.37573 -7.72881,-0.006c-0.82959,0.65992 -6.34928,1.12032 -6.34928,0.52954c0,-0.28066 -0.37266,-0.51025 -0.82813,-0.51025c-0.45547,0 -0.82812,0.2397 -0.82812,0.53276c0,0.33262 -3.88859,0.43457 -10.35154,0.27149c-5.69335,-0.14365 -10.95082,-0.2586 -11.68327,-0.25542c-0.73244,0.005 -2.16095,-0.22329 -3.17447,-0.50313c-1.10819,-0.30595 -1.84273,-0.30786 -1.84273,-0.005c0,0.50171 -1.93091,0.42046 -2.45461,-0.10332c-0.15111,-0.15107 -2.66347,-0.18638 -5.58304,-0.0784c-3.51875,0.13013 -5.57128,-0.022 -6.08842,-0.45117c-0.60757,-0.5043 -0.78202,-0.47988 -0.78859,0.11025c-0.006,0.47872 -0.15779,0.54537 -0.41406,0.18096c-0.24353,-0.34614 -3.38432,-0.60415 -7.85873,-0.64541c-4.0992,-0.0376 -16.52105,-0.21094 -27.60409,-0.38457c-11.08304,-0.17358 -25.30605,-0.34878 -31.60669,-0.38921c-6.30063,-0.04 -11.45627,-0.22895 -11.45695,-0.41894c-0.00049,-0.19009 -1.36716,-0.34556 -3.0366,-0.34556c-1.66943,0 -3.03527,0.18633 -3.0352,0.41406c0.00008,0.22774 -0.26296,0.41407 -0.58452,0.41407c-0.32156,0 -0.43112,-0.24844 -0.24345,-0.5521c0.18766,-0.30362 -0.0461,-0.55206 -0.5195,-0.55206c-0.47339,0.00025 -0.86071,-0.24819 -0.86071,-0.5518c0,-0.30366 -0.2631,-0.5521 -0.58467,-0.5521c-0.32156,0 -0.43111,0.24844 -0.24345,0.5521c0.20154,0.32607 -0.40658,0.54863 -1.48564,0.5436c-1.38263,-0.007 -1.62548,-0.13857 -0.99873,-0.5436c0.61164,-0.39527 0.63741,-0.5374 0.0986,-0.54365c-0.56184,-0.007 -0.53918,-0.19883 0.0986,-0.83658c0.45547,-0.45546 1.34274,-0.82812 1.97173,-0.82812c0.62897,0 1.14359,-0.26519 1.14359,-0.58931c0,-0.34956 0.47719,-0.43779 1.1733,-0.21684c0.78956,0.25058 1.04975,0.17246 0.79554,-0.23882c-0.20777,-0.33623 -0.23087,-0.61128 -0.0514,-0.61128c0.17952,0 0.51543,0.51094 0.74645,1.13545l0.42004,1.1355l1.45586,-1.14522c0.99802,-0.78496 1.57653,-0.94995 1.83952,-0.52441c0.27201,0.44013 0.51834,0.40283 0.84657,-0.12827c0.3762,-0.60874 4.16399,-0.74522 20.21999,-0.72847c10.8664,0.0117 24.22894,0.18013 29.69455,0.37524c5.46561,0.19507 14.53355,0.49873 20.15099,0.67481c20.28393,0.63564 25.50927,0.86665 25.96375,1.14756c1.01578,0.62768 5.4644,1.18447 6.13799,0.76816c0.41517,-0.25654 0.89879,-0.16494 1.14662,0.21724c0.31988,0.49321 0.56661,0.45078 0.97227,-0.16719c0.29901,-0.45547 0.54777,-0.57969 0.5528,-0.27603c0.006,0.34844 3.42026,0.52745 9.25582,0.48536c9.22237,-0.0666 24.98043,0.8246 24.9816,1.41289c0.00035,0.17055 1.92574,0.28212 4.27862,0.24804c4.03232,-0.0585 13.32085,0.69702 14.96777,1.21753c0.60747,0.19204 0.61899,0.39844 0.06,1.07207c-0.56343,0.67886 -0.54931,0.78902 0.0759,0.5916c0.42251,-0.13339 1.46152,-0.39482 2.30894,-0.5809c0.94931,-0.2085 1.41831,-0.59703 1.22163,-1.01226c-0.17559,-0.37065 -0.0298,-0.28501 0.32431,0.19019c0.52041,0.69887 1.22979,0.78457 3.70904,0.44814c1.74345,-0.23657 3.483,-0.19258 4.03349,0.102c0.53238,0.28496 1.66743,0.55186 2.52246,0.59321c1.43199,0.0692 1.44956,0.095 0.22281,0.32618c-1.03047,0.19423 -1.15533,0.36264 -0.55205,0.74448c0.85351,0.54028 0.13613,0.60796 -7.63956,0.72056c-2.71245,0.0391 -4.55449,-0.15738 -4.55429,-0.48619l-0.00003,-0.00005zm-160.45548,-4.96553c-0.17411,-0.45376 -0.53897,-0.6875 -0.81079,-0.51948c-0.7795,0.48174 -0.57637,1.34439 0.31656,1.34439c0.4925,0 0.68651,-0.32383 0.49423,-0.82491zm-32.19918,1.88721c0.56816,-1.06167 0.53441,-1.18223 -0.24703,-0.88237c-0.77949,0.29912 -0.81461,0.17822 -0.25304,-0.8711l0.65208,-1.2184l0.54923,1.23086c0.63015,1.41215 1.77023,1.61748 2.23639,0.40268c0.17477,-0.45547 0.11853,-0.82812 -0.12497,-0.82812c-0.24351,0 -0.44275,-0.37569 -0.44275,-0.83492c0,-0.6788 0.49884,-0.76875 2.66841,-0.48095c1.82295,0.24179 2.66839,0.15649 2.66839,-0.26919c0,-0.34619 0.87351,-0.62324 1.96487,-0.62324c1.28816,0 1.83563,0.20913 1.58962,0.60717c-0.2668,0.43164 -0.0404,0.42798 0.78312,-0.0127c0.96247,-0.51509 1.1038,-0.47774 0.83568,0.22094c-0.17748,0.46246 -0.54454,0.84087 -0.8157,0.84087c-0.27116,0 -0.49302,0.24844 -0.49302,0.55205c0,1.15083 0.99773,0.4857 1.65625,-1.10415c0.76803,-1.85415 0.7878,-1.86435 2.17181,-1.12368c0.69814,0.37364 0.91389,0.95703 0.72308,1.95518c-0.14958,0.78247 -0.0547,1.35029 0.21084,1.26172c0.26554,-0.0885 0.60702,0.0818 0.75884,0.37861c0.16328,0.31914 -1.14895,0.57778 -3.21224,0.6332c-3.189,0.0856 -3.54002,-0.02 -4.09122,-1.22964c-0.59426,-1.30429 -2.63401,-1.87626 -2.63401,-0.73867c0,0.32163 0.24559,0.43291 0.54576,0.24742c0.30797,-0.19039 0.40833,0.021 0.23035,0.48461c-0.18429,0.48028 -0.67832,0.68272 -1.18841,0.48692c-0.5675,-0.21773 -0.7368,-0.1146 -0.48381,0.29477c0.44412,0.71861 -1.39066,1.24922 -3.52055,1.01812c-0.75911,-0.0823 -1.83377,0.0711 -2.38814,0.34097c-0.90319,0.43969 -0.93954,0.36298 -0.34983,-0.73892l0,-0.00004zm15.10295,-2.07441c0.15639,-0.25303 -0.0665,-0.46006 -0.49522,-0.46006c-0.42875,0 -0.6516,0.20703 -0.49521,0.46006c0.15639,0.25302 0.37924,0.46006 0.49521,0.46006c0.11598,0 0.33883,-0.20704 0.49522,-0.46006zm-22.5397,2.17905c-0.16633,-0.26914 0.19269,-0.61875 0.79781,-0.777c0.73282,-0.19165 0.98757,-0.58135 0.76286,-1.1669c-0.18557,-0.48359 -0.10377,-0.87925 0.18174,-0.87925c0.75725,0 0.63485,1.80342 -0.17753,2.61583c-0.82404,0.82402 -1.15653,0.86806 -1.56488,0.20732zm3.3854,-1.53496c0.15536,-0.40488 0.35354,-0.73613 0.44038,-0.73613c0.0868,0 0.28502,0.33125 0.44038,0.73613c0.15537,0.40488 -0.0428,0.73613 -0.44038,0.73613c-0.39756,0 -0.59574,-0.33125 -0.44038,-0.73613zm2.12912,-1.54668c0.58942,-0.4458 1.61599,-0.81846 2.28127,-0.82813c1.31686,-0.0195 2.15592,0.81807 1.33093,1.32798c-0.28267,0.17466 -0.60914,0.0322 -0.7255,-0.31709c-0.15899,-0.47695 -0.50464,-0.47788 -1.39106,-0.005c-1.69703,0.90825 -2.76432,0.78027 -1.49564,-0.1793l0,0.00154zm-7.33608,-0.0751c0.18346,-0.18345 0.65963,-0.20307 1.05816,-0.0435c0.44041,0.17622 0.30959,0.30704 -0.33355,0.3335c-0.58198,0.0239 -0.90806,-0.10649 -0.72461,-0.28994l0,-0.00006zm-2139.07391,-223.14472c-0.70771,-0.45733 -0.68765,-0.53643 0.13803,-0.54366c0.53137,-0.005 0.96614,0.23999 0.96614,0.54366c0,0.67334 -0.0623,0.67334 -1.10417,0zm2136.10895,222.30385c-0.26326,-0.68609 -0.12164,-0.73335 0.76906,-0.25664c1.27976,0.68491 1.40107,1.09751 0.32269,1.09751c-0.42299,0 -0.91427,-0.37842 -1.09175,-0.84087z"/>
 </g>
</svg>